<svg height="487" version="1.1" width="500" xmlns="http://www.w3.org/2000/svg" xmlns:xlink="http://www.w3.org/1999/xlink" style="overflow: hidden; position: relative;"><desc>Created with Raphaël 2.3.0</desc><defs></defs><rect x="0" y="0" width="500" height="243.5" rx="0" ry="0" fill="#776e65" stroke="#776e65" style=""></rect><path style="stroke-linejoin: round; opacity: 1;" fill="#d3d3d3" stroke="#808080" d="M317.98471174327824,34.26457188810757L385.9694234865564,56.35414377621521L427.98628605926643,114.18539377621521L360.00157431598825,92.09582188810757L317.98471174327824,34.26457188810757" stroke-width="1" stroke-linejoin="round" opacity="1"></path><path style="stroke-linejoin: round; opacity: 1;" fill="#d3d3d3" stroke="#808080" d="M360.00157431598825,92.09582188810757L427.98628605926643,114.18539377621521L427.98628605926643,185.66874999999987L360.00157431598825,163.57917811189225L360.00157431598825,92.09582188810757" stroke-width="1" stroke-linejoin="round" opacity="1"></path><path style="opacity: 0;" fill="#ffffff" stroke="#000000" d="M360.00157431598825,92.09582188810757L427.98628605926643,114.18539377621521L427.98628605926643,185.66874999999987L360.00157431598825,163.57917811189225L360.00157431598825,92.09582188810757" stroke-width="0" opacity="0" transform="matrix(0.7,0,0,0.7,118.1982,41.6647)"></path><path style="stroke-linejoin: round; opacity: 1;" fill="#d3d3d3" stroke="#808080" d="M360.00157431598825,163.57917811189225L427.98628605926643,185.66874999999987L385.9694234865564,243.4999999999999L317.98471174327824,221.41042811189226L360.00157431598825,163.57917811189225" stroke-width="1" stroke-linejoin="round" opacity="1"></path><path style="opacity: 0;" fill="#ffffff" stroke="#000000" d="M360.00157431598825,163.57917811189225L427.98628605926643,185.66874999999987L385.9694234865564,243.4999999999999L317.98471174327824,221.41042811189226L360.00157431598825,163.57917811189225" stroke-width="0" opacity="0" transform="matrix(0.7,0,0,0.7,111.8956,61.0619)"></path><path style="stroke-linejoin: round; opacity: 1;" fill="#fafad2" stroke="#808080" d="M317.98471174327824,221.41042811189226L385.9694234865564,243.4999999999999L317.98471174327824,265.58957188810757L250.00000000000006,243.49999999999991L317.98471174327824,221.41042811189226" stroke-width="1" stroke-linejoin="round" opacity="1"></path><path style="opacity: 0;" fill="#ffffff" stroke="#000000" d="M317.98471174327824,221.41042811189226L385.9694234865564,243.4999999999999L317.98471174327824,265.58957188810757L250.00000000000006,243.49999999999991L317.98471174327824,221.41042811189226" stroke-width="0" opacity="0" transform="matrix(0.7,0,0,0.7,95.3954,73.05)"></path><path style="stroke-linejoin: round; opacity: 1;" fill="#d3d3d3" stroke="#808080" d="M250.00000000000006,243.49999999999991L317.98471174327824,265.58957188810757L360.00157431598825,323.4208218881075L292.01686257271007,301.3312499999999L250.00000000000006,243.49999999999991" stroke-width="1" stroke-linejoin="round" opacity="1"></path><path style="opacity: 0;" fill="#ffffff" stroke="#000000" d="M250.00000000000006,243.49999999999991L317.98471174327824,265.58957188810757L360.00157431598825,323.4208218881075L292.01686257271007,301.3312499999999L250.00000000000006,243.49999999999991" stroke-width="0" opacity="0" transform="matrix(0.7,0,0,0.7,91.5002,85.0381)"></path><path style="stroke-linejoin: round; opacity: 1;" fill="#d3d3d3" stroke="#808080" d="M292.01686257271007,301.3312499999999L360.00157431598825,323.4208218881075L360.00157431598825,394.90417811189224L292.01686257271007,372.8146062237846L292.01686257271007,301.3312499999999" stroke-width="1" stroke-linejoin="round" opacity="1"></path><path style="stroke-linejoin: round; opacity: 1;" fill="#d3d3d3" stroke="#808080" d="M292.01686257271007,372.8146062237846L360.00157431598825,394.90417811189224L317.98471174327824,452.73542811189225L250.00000000000006,430.6458562237846L292.01686257271007,372.8146062237846" stroke-width="1" stroke-linejoin="round" opacity="1"></path><path style="stroke-linejoin: round; opacity: 1;" fill="#d3d3d3" stroke="#808080" d="M250.00000000000006,430.6458562237846L317.98471174327824,452.73542811189225L250.00000000000006,474.8249999999999L182.01528825672187,452.73542811189225L250.00000000000006,430.6458562237846" stroke-width="1" stroke-linejoin="round" opacity="1"></path><path style="opacity: 0;" fill="#ffffff" stroke="#000000" d="M250.00000000000006,430.6458562237846L317.98471174327824,452.73542811189225L250.00000000000006,474.8249999999999L182.01528825672187,452.73542811189225L250.00000000000006,430.6458562237846" stroke-width="0" opacity="0" transform="matrix(0.7,0,0,0.7,75,135.8206)"></path><path style="stroke-linejoin: round; opacity: 1;" fill="#d3d3d3" stroke="#808080" d="M250.00000000000006,12.174999999999937L317.98471174327824,34.26457188810758L250.00000000000006,56.35414377621524L182.01528825672187,34.2645718881076L250.00000000000006,12.174999999999937" stroke-width="1" stroke-linejoin="round" opacity="1"></path><path style="opacity: 0;" fill="#ffffff" stroke="#000000" d="M250.00000000000006,12.174999999999937L317.98471174327824,34.26457188810758L250.00000000000006,56.35414377621524L182.01528825672187,34.2645718881076L250.00000000000006,12.174999999999937" stroke-width="0" opacity="0" transform="matrix(0.7,0,0,0.7,75,10.2794)"></path><path style="stroke-linejoin: round; opacity: 1;" fill="#ffffff" stroke="#808080" d="M182.01528825672187,34.2645718881076L250.00000000000006,56.35414377621524L207.98313742729005,114.18539377621524L139.99842568401186,92.0958218881076L182.01528825672187,34.2645718881076" stroke-width="1" stroke-linejoin="round" opacity="1"></path><path style="opacity: 0;" fill="#ffffff" stroke="#000000" d="M182.01528825672187,34.2645718881076L250.00000000000006,56.35414377621524L207.98313742729005,114.18539377621524L139.99842568401186,92.0958218881076L182.01528825672187,34.2645718881076" stroke-width="0" opacity="0" transform="matrix(1,0,0,1,0,0)"></path><path style="stroke-linejoin: round; opacity: 1;" fill="#ffffff" stroke="#808080" d="M139.99842568401186,92.0958218881076L207.98313742729005,114.18539377621524L207.98313742729005,185.66874999999993L139.99842568401186,163.5791781118923L139.99842568401186,92.0958218881076" stroke-width="1" stroke-linejoin="round" opacity="1"></path><path style="stroke-linejoin: round; opacity: 1;" fill="#ffffff" stroke="#808080" d="M139.99842568401186,163.5791781118923L207.98313742729005,185.66874999999993L250.00000000000006,243.49999999999994L182.01528825672187,221.41042811189232L139.99842568401186,163.5791781118923" stroke-width="1" stroke-linejoin="round" opacity="1"></path><path style="stroke-linejoin: round; opacity: 1;" fill="#ffffff" stroke="#808080" d="M182.0152882567219,221.4104281118923L250.00000000000006,243.49999999999994L182.0152882567219,265.58957188810757L114.03057651344373,243.49999999999994L182.0152882567219,221.4104281118923" stroke-width="1" stroke-linejoin="round" opacity="1"></path><path style="opacity: 0;" fill="#ffffff" stroke="#000000" d="M182.0152882567219,221.4104281118923L250.00000000000006,243.49999999999994L182.0152882567219,265.58957188810757L114.03057651344373,243.49999999999994L182.0152882567219,221.4104281118923" stroke-width="0" opacity="0" transform="matrix(1,0,0,1,0,0)"></path><path style="stroke-linejoin: round; opacity: 1;" fill="#ffffff" stroke="#808080" d="M114.03057651344373,243.49999999999994L182.0152882567219,265.58957188810757L139.99842568401186,323.4208218881076L72.01371394073371,301.33124999999995L114.03057651344373,243.49999999999994" stroke-width="1" stroke-linejoin="round" opacity="1"></path><path style="opacity: 0;" fill="#ffffff" stroke="#000000" d="M114.03057651344373,243.49999999999994L182.0152882567219,265.58957188810757L139.99842568401186,323.4208218881076L72.01371394073371,301.33124999999995L114.03057651344373,243.49999999999994" stroke-width="0" opacity="0" transform="matrix(1,0,0,1,0,0)"></path><path style="stroke-linejoin: round; opacity: 1;" fill="#ffffff" stroke="#808080" d="M72.01371394073372,301.33124999999995L139.9984256840119,323.4208218881076L139.9984256840119,394.9041781118923L72.01371394073372,372.81460622378466L72.01371394073372,301.33124999999995" stroke-width="1" stroke-linejoin="round" opacity="1"></path><path style="stroke-linejoin: round; opacity: 1;" fill="#ffffff" stroke="#808080" d="M72.01371394073374,372.81460622378466L139.99842568401192,394.9041781118923L182.01528825672193,452.7354281118923L114.03057651344376,430.6458562237847L72.01371394073374,372.81460622378466" stroke-width="1" stroke-linejoin="round" opacity="1"></path><path style="stroke-linejoin: round; opacity: 1;" fill="#d3d3d3" stroke="#808080" d="M317.98471174327824,34.26457188810757L360.00157431598825,92.09582188810757L292.01686257271007,114.18539377621522L250.00000000000006,56.354143776215224L317.98471174327824,34.26457188810757" stroke-width="1" stroke-linejoin="round" opacity="1"></path><path style="opacity: 0;" fill="#ffffff" stroke="#000000" d="M317.98471174327824,34.26457188810757L360.00157431598825,92.09582188810757L292.01686257271007,114.18539377621522L250.00000000000006,56.354143776215224L317.98471174327824,34.26457188810757" stroke-width="0" opacity="0" transform="matrix(0.7,0,0,0.7,91.5002,22.2675)"></path><path style="stroke-linejoin: round; opacity: 1;" fill="#ffffff" stroke="#808080" d="M250.00000000000006,56.35414377621523L292.01686257271007,114.18539377621522L250.00000000000006,172.01664377621523L207.98313742729005,114.18539377621522L250.00000000000006,56.35414377621523" stroke-width="1" stroke-linejoin="round" opacity="1"></path><path style="opacity: 0;" fill="#ffffff" stroke="#000000" d="M250.00000000000006,56.35414377621523L292.01686257271007,114.18539377621522L250.00000000000006,172.01664377621523L207.98313742729005,114.18539377621522L250.00000000000006,56.35414377621523" stroke-width="0" opacity="0" transform="matrix(1,0,0,1,0,0)"></path><path style="stroke-linejoin: round; opacity: 1;" fill="#ffffff" stroke="#808080" d="M207.98313742729005,114.18539377621522L250.00000000000006,172.01664377621523L250.00000000000006,243.49999999999994L207.98313742729005,185.66874999999993L207.98313742729005,114.18539377621522" stroke-width="1" stroke-linejoin="round" opacity="1"></path><path style="opacity: 0;" fill="#ffffff" stroke="#000000" d="M207.98313742729005,114.18539377621522L250.00000000000006,172.01664377621523L250.00000000000006,243.49999999999994L207.98313742729005,185.66874999999993L207.98313742729005,114.18539377621522" stroke-width="0" opacity="0" transform="matrix(1,0,0,1,0,0)"></path><path style="stroke-linejoin: round; opacity: 1;" fill="#ffffff" stroke="#808080" d="M139.99842568401186,163.5791781118923L182.01528825672187,221.41042811189232L114.03057651344372,243.49999999999994L72.0137139407337,185.66874999999996L139.99842568401186,163.5791781118923" stroke-width="1" stroke-linejoin="round" opacity="1"></path><path style="opacity: 0;" fill="#ffffff" stroke="#000000" d="M139.99842568401186,163.5791781118923L182.01528825672187,221.41042811189232L114.03057651344372,243.49999999999994L72.0137139407337,185.66874999999996L139.99842568401186,163.5791781118923" stroke-width="0" opacity="0" transform="matrix(1,0,0,1,0,0)"></path><path style="stroke-linejoin: round; opacity: 1;" fill="#ffffff" stroke="#808080" d="M72.0137139407337,185.66874999999996L114.03057651344372,243.49999999999994L72.01371394073371,301.33124999999995L29.996851368023677,243.49999999999994L72.0137139407337,185.66874999999996" stroke-width="1" stroke-linejoin="round" opacity="1"></path><path style="stroke-linejoin: round; opacity: 1;" fill="#ffffff" stroke="#808080" d="M29.996851368023684,243.49999999999994L72.01371394073371,301.33124999999995L72.01371394073371,372.81460622378466L29.996851368023687,314.98335622378465L29.996851368023684,243.49999999999994" stroke-width="1" stroke-linejoin="round" opacity="1"></path><path style="opacity: 0;" fill="#ffffff" stroke="#000000" d="M29.996851368023684,243.49999999999994L72.01371394073371,301.33124999999995L72.01371394073371,372.81460622378466L29.996851368023687,314.98335622378465L29.996851368023684,243.49999999999994" stroke-width="0" opacity="0" transform="matrix(1,0,0,1,0,0)"></path><path style="stroke-linejoin: round; opacity: 1;" fill="#ffffff" stroke="#808080" d="M427.98628605926643,114.1853937762152L470.00314863197644,172.01664377621518L470.00314863197644,243.4999999999999L427.98628605926643,185.66874999999987L427.98628605926643,114.1853937762152" stroke-width="1" stroke-linejoin="round" opacity="1"></path><path style="opacity: 0;" fill="#ffffff" stroke="#000000" d="M427.98628605926643,114.1853937762152L470.00314863197644,172.01664377621518L470.00314863197644,243.4999999999999L427.98628605926643,185.66874999999987L427.98628605926643,114.1853937762152" stroke-width="0" opacity="0" transform="matrix(1,0,0,1,0,0)"></path><path style="stroke-linejoin: round; opacity: 1;" fill="#ffffff" stroke="#808080" d="M427.98628605926643,185.66874999999987L470.00314863197644,243.4999999999999L427.98628605926643,301.3312499999999L385.9694234865564,243.4999999999999L427.98628605926643,185.66874999999987" stroke-width="1" stroke-linejoin="round" opacity="1"></path><path style="stroke-linejoin: round; opacity: 1;" fill="#d3d3d3" stroke="#808080" d="M385.9694234865564,243.4999999999999L427.98628605926643,301.3312499999999L360.00157431598825,323.4208218881076L317.98471174327824,265.58957188810757L385.9694234865564,243.4999999999999" stroke-width="1" stroke-linejoin="round" opacity="1"></path><path style="opacity: 0;" fill="#ffffff" stroke="#000000" d="M385.9694234865564,243.4999999999999L427.98628605926643,301.3312499999999L360.00157431598825,323.4208218881076L317.98471174327824,265.58957188810757L385.9694234865564,243.4999999999999" stroke-width="0" opacity="0" transform="matrix(0.7,0,0,0.7,111.8956,85.0381)"></path><path style="stroke-linejoin: round; opacity: 1;" fill="#ffffff" stroke="#808080" d="M250.00000000000006,243.49999999999994L292.01686257271007,301.33124999999995L292.01686257271007,372.81460622378466L250.00000000000006,314.98335622378465L250.00000000000006,243.49999999999994" stroke-width="1" stroke-linejoin="round" opacity="1"></path><path style="opacity: 0;" fill="#ffffff" stroke="#000000" d="M250.00000000000006,243.49999999999994L292.01686257271007,301.33124999999995L292.01686257271007,372.81460622378466L250.00000000000006,314.98335622378465L250.00000000000006,243.49999999999994" stroke-width="0" opacity="0" transform="matrix(1,0,0,1,0,0)"></path><path style="stroke-linejoin: round; opacity: 1;" fill="#ffffff" stroke="#808080" d="M250.00000000000006,314.98335622378465L292.01686257271007,372.81460622378466L250.00000000000006,430.6458562237847L207.98313742729005,372.81460622378466L250.00000000000006,314.98335622378465" stroke-width="1" stroke-linejoin="round" opacity="1"></path><path style="stroke-linejoin: round; opacity: 1;" fill="#ffffff" stroke="#808080" d="M207.98313742729005,372.81460622378466L250.00000000000006,430.6458562237847L182.01528825672187,452.7354281118923L139.99842568401186,394.9041781118923L207.98313742729005,372.81460622378466" stroke-width="1" stroke-linejoin="round" opacity="1"></path><path style="stroke-linejoin: round; opacity: 1;" fill="#d3d3d3" stroke="#808080" d="M360.00157431598825,92.09582188810757L360.00157431598825,163.57917811189225L292.01686257271007,185.66874999999993L292.01686257271007,114.18539377621522L360.00157431598825,92.09582188810757" stroke-width="1" stroke-linejoin="round" opacity="1"></path><path style="stroke-linejoin: round; opacity: 1;" fill="#ffffff" stroke="#808080" d="M292.01686257271007,114.18539377621522L292.01686257271007,185.66874999999993L250.00000000000006,243.49999999999994L250.00000000000006,172.01664377621523L292.01686257271007,114.18539377621522" stroke-width="1" stroke-linejoin="round" opacity="1"></path><path style="opacity: 0;" fill="#ffffff" stroke="#000000" d="M292.01686257271007,114.18539377621522L292.01686257271007,185.66874999999993L250.00000000000006,243.49999999999994L250.00000000000006,172.01664377621523L292.01686257271007,114.18539377621522" stroke-width="0" opacity="0" transform="matrix(1,0,0,1,0,0)"></path><path style="stroke-linejoin: round; opacity: 1;" fill="#ffffff" stroke="#808080" d="M139.99842568401186,92.09582188810762L139.99842568401186,163.5791781118923L72.0137139407337,185.66875L72.0137139407337,114.18539377621528L139.99842568401186,92.09582188810762" stroke-width="1" stroke-linejoin="round" opacity="1"></path><path style="opacity: 0;" fill="#ffffff" stroke="#000000" d="M139.99842568401186,92.09582188810762L139.99842568401186,163.5791781118923L72.0137139407337,185.66875L72.0137139407337,114.18539377621528L139.99842568401186,92.09582188810762" stroke-width="0" opacity="0" transform="matrix(1,0,0,1,0,0)"></path><path style="stroke-linejoin: round; opacity: 1;" fill="#ffffff" stroke="#808080" d="M72.0137139407337,114.18539377621528L72.0137139407337,185.66875L29.99685136802368,243.5L29.996851368023677,172.0166437762153L72.0137139407337,114.18539377621528" stroke-width="1" stroke-linejoin="round" opacity="1"></path><path style="opacity: 0;" fill="#ffffff" stroke="#000000" d="M72.0137139407337,114.18539377621528L72.0137139407337,185.66875L29.99685136802368,243.5L29.996851368023677,172.0166437762153L72.0137139407337,114.18539377621528" stroke-width="0" opacity="0" transform="matrix(1,0,0,1,0,0)"></path><path style="stroke-linejoin: round; opacity: 1;" fill="#ffffff" stroke="#808080" d="M470.00314863197644,243.4999999999999L470.00314863197644,314.9833562237846L427.98628605926643,372.8146062237846L427.98628605926643,301.3312499999999L470.00314863197644,243.4999999999999" stroke-width="1" stroke-linejoin="round" opacity="1"></path><path style="opacity: 0;" fill="#ffffff" stroke="#000000" d="M470.00314863197644,243.4999999999999L470.00314863197644,314.9833562237846L427.98628605926643,372.8146062237846L427.98628605926643,301.3312499999999L470.00314863197644,243.4999999999999" stroke-width="0" opacity="0" transform="matrix(1,0,0,1,0,0)"></path><path style="stroke-linejoin: round; opacity: 1;" fill="#d3d3d3" stroke="#808080" d="M427.98628605926643,301.3312499999999L427.98628605926643,372.8146062237846L360.00157431598825,394.90417811189224L360.00157431598825,323.4208218881075L427.98628605926643,301.3312499999999" stroke-width="1" stroke-linejoin="round" opacity="1"></path><path style="opacity: 0;" fill="#ffffff" stroke="#000000" d="M427.98628605926643,301.3312499999999L427.98628605926643,372.8146062237846L360.00157431598825,394.90417811189224L360.00157431598825,323.4208218881075L427.98628605926643,301.3312499999999" stroke-width="0" opacity="0" transform="matrix(0.7,0,0,0.7,118.1982,104.4353)"></path><path style="stroke-linejoin: round; opacity: 1;" fill="#ffffff" stroke="#808080" d="M250.00000000000003,243.49999999999997L250.00000000000003,314.98335622378465L207.98313742729002,372.81460622378466L207.98313742729002,301.33124999999995L250.00000000000003,243.49999999999997" stroke-width="1" stroke-linejoin="round" opacity="1"></path><path style="opacity: 0;" fill="#ffffff" stroke="#000000" d="M250.00000000000003,243.49999999999997L250.00000000000003,314.98335622378465L207.98313742729002,372.81460622378466L207.98313742729002,301.33124999999995L250.00000000000003,243.49999999999997" stroke-width="0" opacity="0" transform="matrix(1,0,0,1,0,0)"></path><path style="stroke-linejoin: round; opacity: 1;" fill="#ffffff" stroke="#808080" d="M207.98313742729002,301.33124999999995L207.98313742729002,372.81460622378466L139.99842568401186,394.90417811189235L139.99842568401186,323.42082188810764L207.98313742729002,301.33124999999995" stroke-width="1" stroke-linejoin="round" opacity="1"></path><path style="opacity: 0;" fill="#ffffff" stroke="#000000" d="M207.98313742729002,301.33124999999995L207.98313742729002,372.81460622378466L139.99842568401186,394.90417811189235L139.99842568401186,323.42082188810764L207.98313742729002,301.33124999999995" stroke-width="0" opacity="0" transform="matrix(1,0,0,1,0,0)"></path><path style="stroke-linejoin: round; opacity: 1;" fill="#d3d3d3" stroke="#808080" d="M360.00157431598825,163.57917811189228L317.98471174327824,221.41042811189226L250.00000000000006,243.49999999999994L292.01686257271007,185.66874999999993L360.00157431598825,163.57917811189228" stroke-width="1" stroke-linejoin="round" opacity="1"></path><path style="stroke-linejoin: round; opacity: 1;" fill="#ffffff" stroke="#808080" d="M182.01528825672187,34.26457188810761L139.99842568401186,92.09582188810761L72.01371394073368,114.18539377621526L114.0305765134437,56.35414377621527L182.01528825672187,34.26457188810761" stroke-width="1" stroke-linejoin="round" opacity="1"></path><path style="stroke-linejoin: round; opacity: 1;" fill="#d3d3d3" stroke="#808080" d="M427.98628605926643,372.8146062237846L385.9694234865564,430.6458562237846L317.98471174327824,452.7354281118923L360.00157431598825,394.9041781118923L427.98628605926643,372.8146062237846" stroke-width="1" stroke-linejoin="round" opacity="1"></path><path style="opacity: 0;" fill="#ffffff" stroke="#000000" d="M427.98628605926643,372.8146062237846L385.9694234865564,430.6458562237846L317.98471174327824,452.7354281118923L360.00157431598825,394.9041781118923L427.98628605926643,372.8146062237846" stroke-width="0" opacity="0" transform="matrix(0.7,0,0,0.7,111.8956,123.8325)"></path><path style="stroke-linejoin: round; opacity: 1;" fill="#ffffff" stroke="#808080" d="M250.00000000000003,243.49999999999994L207.98313742729002,301.33124999999995L139.99842568401186,323.4208218881076L182.01528825672187,265.58957188810757L250.00000000000003,243.49999999999994" stroke-width="1" stroke-linejoin="round" opacity="1"></path><path style="opacity: 0;" fill="#ffffff" stroke="#000000" d="M250.00000000000003,243.49999999999994L207.98313742729002,301.33124999999995L139.99842568401186,323.4208218881076L182.01528825672187,265.58957188810757L250.00000000000003,243.49999999999994" stroke-width="0" opacity="0" transform="matrix(1,0,0,1,0,0)"></path><path style="stroke-linejoin: round; opacity: 1;" fill="none" stroke="#000000" d="M317.98471174327824,265.58957188810757L250.00000000000006,243.49999999999991L250.00000000000006,243.49999999999994L292.01686257271007,185.66874999999993L360.00157431598825,163.57917811189228L360.00157431598825,163.57917811189225L360.00157431598825,163.57917811189225L360.00157431598825,92.09582188810757L427.98628605926643,114.18539377621521L427.98628605926643,114.1853937762152L470.00314863197644,172.01664377621518L470.00314863197644,243.4999999999999L470.00314863197644,243.4999999999999L470.00314863197644,243.4999999999999L470.00314863197644,314.9833562237846L427.98628605926643,372.8146062237846L427.98628605926643,301.3312499999999L427.98628605926643,301.3312499999999L427.98628605926643,301.3312499999999L360.00157431598825,323.4208218881076L317.98471174327824,265.58957188810757L317.98471174327824,265.58957188810757" stroke-width="3" stroke-linejoin="round" opacity="1"></path><path style="stroke-linejoin: round; opacity: 1;" fill="none" stroke="#000000" d="M292.01686257271007,185.66874999999993L250.00000000000006,243.49999999999994L250.00000000000006,243.49999999999994L207.98313742729005,185.66874999999993L207.98313742729005,114.18539377621522L207.98313742729005,114.18539377621522L207.98313742729005,114.18539377621524L139.99842568401186,92.0958218881076L182.01528825672187,34.2645718881076L182.01528825672187,34.2645718881076L250.00000000000006,12.174999999999937L317.98471174327824,34.26457188810758L317.98471174327824,34.26457188810757L317.98471174327824,34.26457188810757L385.9694234865564,56.35414377621521L427.98628605926643,114.18539377621521L360.00157431598825,92.09582188810757L360.00157431598825,92.09582188810757L360.00157431598825,92.09582188810757L360.00157431598825,163.57917811189225L292.01686257271007,185.66874999999993L292.01686257271007,185.66874999999993" stroke-width="3" stroke-linejoin="round" opacity="1"></path><path style="stroke-linejoin: round; opacity: 1;" fill="none" stroke="#000000" d="M207.98313742729005,185.66874999999993L250.00000000000006,243.49999999999994L250.00000000000006,243.49999999999994L182.0152882567219,265.58957188810757L114.03057651344373,243.49999999999994L114.03057651344372,243.49999999999994L114.03057651344372,243.49999999999994L72.01371394073371,301.33124999999995L29.996851368023677,243.49999999999994L29.99685136802368,243.5L29.996851368023677,172.0166437762153L72.0137139407337,114.18539377621528L72.0137139407337,114.18539377621528L72.01371394073368,114.18539377621526L114.0305765134437,56.35414377621527L182.01528825672187,34.26457188810761L139.99842568401186,92.09582188810761L139.99842568401186,92.09582188810762L139.99842568401186,92.0958218881076L207.98313742729005,114.18539377621524L207.98313742729005,185.66874999999993L207.98313742729005,185.66874999999993" stroke-width="3" stroke-linejoin="round" opacity="1"></path><path style="stroke-linejoin: round; opacity: 1;" fill="none" stroke="#000000" d="M182.01528825672187,265.58957188810757L250.00000000000003,243.49999999999994L250.00000000000003,243.49999999999997L250.00000000000003,314.98335622378465L207.98313742729002,372.81460622378466L207.98313742729002,372.81460622378466L207.98313742729005,372.81460622378466L250.00000000000006,430.6458562237847L182.01528825672187,452.7354281118923L182.01528825672193,452.7354281118923L114.03057651344376,430.6458562237847L72.01371394073374,372.81460622378466L72.01371394073372,372.81460622378466L72.01371394073371,372.81460622378466L29.996851368023687,314.98335622378465L29.996851368023684,243.49999999999994L72.01371394073371,301.33124999999995L72.01371394073372,301.33124999999995L72.01371394073371,301.33124999999995L114.03057651344373,243.49999999999994L182.0152882567219,265.58957188810757L182.01528825672187,265.58957188810757" stroke-width="3" stroke-linejoin="round" opacity="1"></path><path style="stroke-linejoin: round; opacity: 1;" fill="none" stroke="#000000" d="M250.00000000000006,314.98335622378465L250.00000000000006,243.49999999999994L250.00000000000006,243.49999999999991L317.98471174327824,265.58957188810757L360.00157431598825,323.4208218881075L360.00157431598825,323.4208218881075L360.00157431598825,323.4208218881075L427.98628605926643,301.3312499999999L427.98628605926643,372.8146062237846L427.98628605926643,372.8146062237846L385.9694234865564,430.6458562237846L317.98471174327824,452.7354281118923L317.98471174327824,452.73542811189225L317.98471174327824,452.73542811189225L250.00000000000006,474.8249999999999L182.01528825672187,452.73542811189225L250.00000000000006,430.6458562237846L250.00000000000006,430.6458562237846L250.00000000000006,430.6458562237847L207.98313742729005,372.81460622378466L250.00000000000006,314.98335622378465L250.00000000000006,314.98335622378465" stroke-width="3" stroke-linejoin="round" opacity="1"></path><text style="text-anchor: middle; font-family: &quot;Arial&quot;; font-size: 20px; opacity: 1;" x="372.9854989012723" y="74.22498283216139" text-anchor="middle" font-family="&quot;Arial&quot;" font-size="20px" stroke="none" fill="#000000" stroke-width="2" opacity="1"><tspan dy="6.999999616829356">5</tspan></text><path style="opacity: 0;" fill="#ffffff" stroke="#000000" d="M317.98471174327824,34.26457188810757L385.9694234865564,56.35414377621521L427.98628605926643,114.18539377621521L360.00157431598825,92.09582188810757L317.98471174327824,34.26457188810757" stroke-width="0" opacity="0" transform="matrix(0.7,0,0,0.7,111.8956,22.2675)"></path><text style="text-anchor: middle; font-family: &quot;Arial&quot;; font-size: 20px; opacity: 1;" x="326.00921844434913" y="348.11771405594607" text-anchor="middle" font-family="&quot;Arial&quot;" font-size="20px" stroke="none" fill="#000000" stroke-width="2" opacity="1"><tspan dy="7.000007757117942">2</tspan></text><path style="opacity: 0;" fill="#ffffff" stroke="#000000" d="M292.01686257271007,301.3312499999999L360.00157431598825,323.4208218881075L360.00157431598825,394.90417811189224L292.01686257271007,372.8146062237846L292.01686257271007,301.3312499999999" stroke-width="0" opacity="0" transform="matrix(0.7,0,0,0.7,97.8028,104.4353)"></path><text style="text-anchor: middle; font-family: &quot;Arial&quot;; font-size: 20px; opacity: 1;" x="305.0007871579942" y="412.7750171678384" text-anchor="middle" font-family="&quot;Arial&quot;" font-size="20px" stroke="none" fill="#000000" stroke-width="2" opacity="1"><tspan dy="6.999992753775928">8</tspan></text><path style="opacity: 0;" fill="#ffffff" stroke="#000000" d="M292.01686257271007,372.8146062237846L360.00157431598825,394.90417811189224L317.98471174327824,452.73542811189225L250.00000000000006,430.6458562237846L292.01686257271007,372.8146062237846" stroke-width="0" opacity="0" transform="matrix(0.7,0,0,0.7,91.5002,123.8325)"></path><text style="text-anchor: middle; font-family: &quot;Arial&quot;; font-size: 20px; opacity: 1;" x="173.99078155565095" y="138.88228594405376" text-anchor="middle" font-family="&quot;Arial&quot;" font-size="20px" stroke="none" fill="#000000" stroke-width="2" opacity="1"><tspan dy="7.00000750167095">4</tspan></text><path style="opacity: 0;" fill="#ffffff" stroke="#000000" d="M139.99842568401186,92.0958218881076L207.98313742729005,114.18539377621524L207.98313742729005,185.66874999999993L139.99842568401186,163.5791781118923L139.99842568401186,92.0958218881076" stroke-width="0" opacity="0" transform="matrix(1,0,0,1,0,0)"></path><text style="text-anchor: middle; font-family: &quot;Arial&quot;; font-size: 20px; opacity: 1;" x="194.99921284200596" y="203.53958905594612" text-anchor="middle" font-family="&quot;Arial&quot;" font-size="20px" stroke="none" fill="#000000" stroke-width="2" opacity="1"><tspan dy="6.999992498328936">7</tspan></text><path style="opacity: 0;" fill="#ffffff" stroke="#000000" d="M139.99842568401186,163.5791781118923L207.98313742729005,185.66874999999993L250.00000000000006,243.49999999999994L182.01528825672187,221.41042811189232L139.99842568401186,163.5791781118923" stroke-width="0" opacity="0" transform="matrix(1,0,0,1,0,0)"></path><text style="text-anchor: middle; font-family: &quot;Arial&quot;; font-size: 20px; opacity: 1;" x="106.0060698123728" y="348.1177140559461" text-anchor="middle" font-family="&quot;Arial&quot;" font-size="20px" stroke="none" fill="#000000" stroke-width="2" opacity="1"><tspan dy="7.000007757117999">8</tspan></text><path style="opacity: 0;" fill="#ffffff" stroke="#000000" d="M72.01371394073372,301.33124999999995L139.9984256840119,323.4208218881076L139.9984256840119,394.9041781118923L72.01371394073372,372.81460622378466L72.01371394073372,301.33124999999995" stroke-width="0" opacity="0" transform="matrix(1,0,0,1,0,0)"></path><text style="text-anchor: middle; font-family: &quot;Arial&quot;; font-size: 20px; opacity: 1;" x="127.01450109872783" y="412.7750171678385" text-anchor="middle" font-family="&quot;Arial&quot;" font-size="20px" stroke="none" fill="#000000" stroke-width="2" opacity="1"><tspan dy="6.9999927537759845">5</tspan></text><path style="opacity: 0;" fill="#ffffff" stroke="#000000" d="M72.01371394073374,372.81460622378466L139.99842568401192,394.9041781118923L182.01528825672193,452.7354281118923L114.03057651344376,430.6458562237847L72.01371394073374,372.81460622378466" stroke-width="0" opacity="0" transform="matrix(1,0,0,1,0,0)"></path><text style="text-anchor: middle; font-family: &quot;Arial&quot;; font-size: 20px; opacity: 1;" x="72.01371394073371" y="243.49999999999994" text-anchor="middle" font-family="&quot;Arial&quot;" font-size="20px" stroke="none" fill="#000000" stroke-width="2" opacity="1"><tspan dy="6.999999999999943">1</tspan></text><path style="opacity: 0;" fill="#ffffff" stroke="#000000" d="M72.0137139407337,185.66874999999996L114.03057651344372,243.49999999999994L72.01371394073371,301.33124999999995L29.996851368023677,243.49999999999994L72.0137139407337,185.66874999999996" stroke-width="0" opacity="0" transform="matrix(1,0,0,1,0,0)"></path><text style="text-anchor: middle; font-family: &quot;Arial&quot;; font-size: 20px; opacity: 1;" x="427.98628605926643" y="243.4999999999999" text-anchor="middle" font-family="&quot;Arial&quot;" font-size="20px" stroke="none" fill="#000000" stroke-width="2" opacity="1"><tspan dy="6.999999999999886">6</tspan></text><path style="opacity: 0;" fill="#ffffff" stroke="#000000" d="M427.98628605926643,185.66874999999987L470.00314863197644,243.4999999999999L427.98628605926643,301.3312499999999L385.9694234865564,243.4999999999999L427.98628605926643,185.66874999999987" stroke-width="0" opacity="0" transform="matrix(1,0,0,1,0,0)"></path><text style="text-anchor: middle; font-family: &quot;Arial&quot;; font-size: 20px; opacity: 1;" x="250.00000000000006" y="372.81460622378466" text-anchor="middle" font-family="&quot;Arial&quot;" font-size="20px" stroke="none" fill="#000000" stroke-width="2" opacity="1"><tspan dy="7.00000051089404">4</tspan></text><path style="opacity: 0;" fill="#ffffff" stroke="#000000" d="M250.00000000000006,314.98335622378465L292.01686257271007,372.81460622378466L250.00000000000006,430.6458562237847L207.98313742729005,372.81460622378466L250.00000000000006,314.98335622378465" stroke-width="0" opacity="0" transform="matrix(1,0,0,1,0,0)"></path><text style="text-anchor: middle; font-family: &quot;Arial&quot;; font-size: 20px; opacity: 1;" x="194.99921284200596" y="412.7750171678385" text-anchor="middle" font-family="&quot;Arial&quot;" font-size="20px" stroke="none" fill="#000000" stroke-width="2" opacity="1"><tspan dy="6.9999927537759845">1</tspan></text><path style="opacity: 0;" fill="#ffffff" stroke="#000000" d="M207.98313742729005,372.81460622378466L250.00000000000006,430.6458562237847L182.01528825672187,452.7354281118923L139.99842568401186,394.9041781118923L207.98313742729005,372.81460622378466" stroke-width="0" opacity="0" transform="matrix(1,0,0,1,0,0)"></path><text style="text-anchor: middle; font-family: &quot;Arial&quot;; font-size: 20px; opacity: 1;" x="326.00921844434913" y="138.88228594405376" text-anchor="middle" font-family="&quot;Arial&quot;" font-size="20px" stroke="none" fill="#000000" stroke-width="2" opacity="1"><tspan dy="7.00000750167095">7</tspan></text><path style="opacity: 0;" fill="#ffffff" stroke="#000000" d="M360.00157431598825,92.09582188810757L360.00157431598825,163.57917811189225L292.01686257271007,185.66874999999993L292.01686257271007,114.18539377621522L360.00157431598825,92.09582188810757" stroke-width="0" opacity="0" transform="matrix(0.7,0,0,0.7,97.8028,41.6647)"></path><text style="text-anchor: middle; font-family: &quot;Arial&quot;; font-size: 20px; opacity: 1;" x="305.0007871579942" y="203.53958905594612" text-anchor="middle" font-family="&quot;Arial&quot;" font-size="20px" stroke="none" fill="#000000" stroke-width="2" opacity="1"><tspan dy="6.999992498328936">3</tspan></text><path style="opacity: 0;" fill="#ffffff" stroke="#000000" d="M360.00157431598825,163.57917811189228L317.98471174327824,221.41042811189226L250.00000000000006,243.49999999999994L292.01686257271007,185.66874999999993L360.00157431598825,163.57917811189228" stroke-width="0" opacity="0" transform="matrix(0.7,0,0,0.7,91.5002,61.0619)"></path><text style="text-anchor: middle; font-family: &quot;Arial&quot;; font-size: 20px; opacity: 1;" x="127.01450109872778" y="74.22498283216143" text-anchor="middle" font-family="&quot;Arial&quot;" font-size="20px" stroke="none" fill="#000000" stroke-width="2" opacity="1"><tspan dy="6.999999616829399">2</tspan></text><path style="opacity: 0;" fill="#ffffff" stroke="#000000" d="M182.01528825672187,34.26457188810761L139.99842568401186,92.09582188810761L72.01371394073368,114.18539377621526L114.0305765134437,56.35414377621527L182.01528825672187,34.26457188810761" stroke-width="0" opacity="0" transform="matrix(1,0,0,1,0,0)"></path></svg>