<?xml version="1.0" encoding="UTF-8" standalone="no"?>
<svg
   height="487"
   version="1.1"
   width="500"
   style="overflow: hidden; position: relative;"
   id="svg85"
   xmlns="http://www.w3.org/2000/svg"
   xmlns:svg="http://www.w3.org/2000/svg">
  <desc
     id="desc1">Created with Raphaël 2.3.0</desc>
  <defs
     id="defs1" />
  <path
     style="stroke-linejoin:round;opacity:1;fill:#800000"
     fill="#d3d3d3"
     stroke="#808080"
     d="M317.98471174327824,34.26457188810757L385.9694234865564,56.35414377621521L427.98628605926643,114.18539377621521L360.00157431598825,92.09582188810757L317.98471174327824,34.26457188810757"
     stroke-width="1"
     stroke-linejoin="round"
     opacity="1"
     id="path1" />
  <path
     style="stroke-linejoin:round;opacity:1;fill:#808000"
     fill="#d3d3d3"
     stroke="#808080"
     d="M360.00157431598825,92.09582188810757L427.98628605926643,114.18539377621521L427.98628605926643,185.66874999999987L360.00157431598825,163.57917811189225L360.00157431598825,92.09582188810757"
     stroke-width="1"
     stroke-linejoin="round"
     opacity="1"
     id="path2" />
  <path
     style="opacity: 0;"
     fill="#ffffff"
     stroke="#000000"
     d="M360.00157431598825,92.09582188810757L427.98628605926643,114.18539377621521L427.98628605926643,185.66874999999987L360.00157431598825,163.57917811189225L360.00157431598825,92.09582188810757"
     stroke-width="0"
     opacity="0"
     transform="matrix(0.7,0,0,0.7,118.1982,41.6647)"
     id="path3" />
  <path
     style="stroke-linejoin:round;opacity:1;fill:#808000"
     fill="#d3d3d3"
     stroke="#808080"
     d="M360.00157431598825,163.57917811189225L427.98628605926643,185.66874999999987L385.9694234865564,243.4999999999999L317.98471174327824,221.41042811189226L360.00157431598825,163.57917811189225"
     stroke-width="1"
     stroke-linejoin="round"
     opacity="1"
     id="path4" />
  <path
     style="opacity: 0;"
     fill="#ffffff"
     stroke="#000000"
     d="M360.00157431598825,163.57917811189225L427.98628605926643,185.66874999999987L385.9694234865564,243.4999999999999L317.98471174327824,221.41042811189226L360.00157431598825,163.57917811189225"
     stroke-width="0"
     opacity="0"
     transform="matrix(0.7,0,0,0.7,111.8956,61.0619)"
     id="path5" />
  <path
     style="stroke-linejoin:round;opacity:1;fill:#808000"
     fill="#fafad2"
     stroke="#808080"
     d="M317.98471174327824,221.41042811189226L385.9694234865564,243.4999999999999L317.98471174327824,265.58957188810757L250.00000000000006,243.49999999999991L317.98471174327824,221.41042811189226"
     stroke-width="1"
     stroke-linejoin="round"
     opacity="1"
     id="path6" />
  <path
     style="opacity: 0;"
     fill="#ffffff"
     stroke="#000000"
     d="M317.98471174327824,221.41042811189226L385.9694234865564,243.4999999999999L317.98471174327824,265.58957188810757L250.00000000000006,243.49999999999991L317.98471174327824,221.41042811189226"
     stroke-width="0"
     opacity="0"
     transform="matrix(0.7,0,0,0.7,95.3954,73.05)"
     id="path7" />
  <path
     style="stroke-linejoin:round;opacity:1;fill:#008000"
     fill="#d3d3d3"
     stroke="#808080"
     d="M250.00000000000006,243.49999999999991L317.98471174327824,265.58957188810757L360.00157431598825,323.4208218881075L292.01686257271007,301.3312499999999L250.00000000000006,243.49999999999991"
     stroke-width="1"
     stroke-linejoin="round"
     opacity="1"
     id="path8" />
  <path
     style="opacity: 0;"
     fill="#ffffff"
     stroke="#000000"
     d="M250.00000000000006,243.49999999999991L317.98471174327824,265.58957188810757L360.00157431598825,323.4208218881075L292.01686257271007,301.3312499999999L250.00000000000006,243.49999999999991"
     stroke-width="0"
     opacity="0"
     transform="matrix(0.7,0,0,0.7,91.5002,85.0381)"
     id="path9" />
  <path
     style="stroke-linejoin:round;opacity:1;fill:#008000"
     fill="#d3d3d3"
     stroke="#808080"
     d="M292.01686257271007,301.3312499999999L360.00157431598825,323.4208218881075L360.00157431598825,394.90417811189224L292.01686257271007,372.8146062237846L292.01686257271007,301.3312499999999"
     stroke-width="1"
     stroke-linejoin="round"
     opacity="1"
     id="path10" />
  <path
     style="stroke-linejoin:round;opacity:1;fill:#008000"
     fill="#d3d3d3"
     stroke="#808080"
     d="M292.01686257271007,372.8146062237846L360.00157431598825,394.90417811189224L317.98471174327824,452.73542811189225L250.00000000000006,430.6458562237846L292.01686257271007,372.8146062237846"
     stroke-width="1"
     stroke-linejoin="round"
     opacity="1"
     id="path11" />
  <path
     style="stroke-linejoin:round;opacity:1;fill:#008000"
     fill="#d3d3d3"
     stroke="#808080"
     d="M250.00000000000006,430.6458562237846L317.98471174327824,452.73542811189225L250.00000000000006,474.8249999999999L182.01528825672187,452.73542811189225L250.00000000000006,430.6458562237846"
     stroke-width="1"
     stroke-linejoin="round"
     opacity="1"
     id="path12" />
  <path
     style="opacity: 0;"
     fill="#ffffff"
     stroke="#000000"
     d="M250.00000000000006,430.6458562237846L317.98471174327824,452.73542811189225L250.00000000000006,474.8249999999999L182.01528825672187,452.73542811189225L250.00000000000006,430.6458562237846"
     stroke-width="0"
     opacity="0"
     transform="matrix(0.7,0,0,0.7,75,135.8206)"
     id="path13" />
  <path
     style="stroke-linejoin:round;opacity:1;fill:#800000"
     fill="#d3d3d3"
     stroke="#808080"
     d="M250.00000000000006,12.174999999999937L317.98471174327824,34.26457188810758L250.00000000000006,56.35414377621524L182.01528825672187,34.2645718881076L250.00000000000006,12.174999999999937"
     stroke-width="1"
     stroke-linejoin="round"
     opacity="1"
     id="path14" />
  <path
     style="opacity: 0;"
     fill="#ffffff"
     stroke="#000000"
     d="M250.00000000000006,12.174999999999937L317.98471174327824,34.26457188810758L250.00000000000006,56.35414377621524L182.01528825672187,34.2645718881076L250.00000000000006,12.174999999999937"
     stroke-width="0"
     opacity="0"
     transform="matrix(0.7,0,0,0.7,75,10.2794)"
     id="path15" />
  <path
     style="stroke-linejoin:round;opacity:1;fill:#800000"
     fill="#ffffff"
     stroke="#808080"
     d="M182.01528825672187,34.2645718881076L250.00000000000006,56.35414377621524L207.98313742729005,114.18539377621524L139.99842568401186,92.0958218881076L182.01528825672187,34.2645718881076"
     stroke-width="1"
     stroke-linejoin="round"
     opacity="1"
     id="path16" />
  <path
     style="opacity: 0;"
     fill="#ffffff"
     stroke="#000000"
     d="M182.01528825672187,34.2645718881076L250.00000000000006,56.35414377621524L207.98313742729005,114.18539377621524L139.99842568401186,92.0958218881076L182.01528825672187,34.2645718881076"
     stroke-width="0"
     opacity="0"
     transform="matrix(1,0,0,1,0,0)"
     id="path17" />
  <path
     style="stroke-linejoin:round;opacity:1;fill:#800080"
     fill="#ffffff"
     stroke="#808080"
     d="M139.99842568401186,92.0958218881076L207.98313742729005,114.18539377621524L207.98313742729005,185.66874999999993L139.99842568401186,163.5791781118923L139.99842568401186,92.0958218881076"
     stroke-width="1"
     stroke-linejoin="round"
     opacity="1"
     id="path18" />
  <path
     style="stroke-linejoin:round;opacity:1;fill:#800080"
     fill="#ffffff"
     stroke="#808080"
     d="M139.99842568401186,163.5791781118923L207.98313742729005,185.66874999999993L250.00000000000006,243.49999999999994L182.01528825672187,221.41042811189232L139.99842568401186,163.5791781118923"
     stroke-width="1"
     stroke-linejoin="round"
     opacity="1"
     id="path19" />
  <path
     style="stroke-linejoin:round;opacity:1;fill:#800080"
     fill="#ffffff"
     stroke="#808080"
     d="M182.0152882567219,221.4104281118923L250.00000000000006,243.49999999999994L182.0152882567219,265.58957188810757L114.03057651344373,243.49999999999994L182.0152882567219,221.4104281118923"
     stroke-width="1"
     stroke-linejoin="round"
     opacity="1"
     id="path20" />
  <path
     style="opacity: 0;"
     fill="#ffffff"
     stroke="#000000"
     d="M182.0152882567219,221.4104281118923L250.00000000000006,243.49999999999994L182.0152882567219,265.58957188810757L114.03057651344373,243.49999999999994L182.0152882567219,221.4104281118923"
     stroke-width="0"
     opacity="0"
     transform="matrix(1,0,0,1,0,0)"
     id="path21" />
  <path
     style="stroke-linejoin:round;opacity:1;fill:#008080"
     fill="#ffffff"
     stroke="#808080"
     d="M114.03057651344373,243.49999999999994L182.0152882567219,265.58957188810757L139.99842568401186,323.4208218881076L72.01371394073371,301.33124999999995L114.03057651344373,243.49999999999994"
     stroke-width="1"
     stroke-linejoin="round"
     opacity="1"
     id="path22" />
  <path
     style="opacity: 0;"
     fill="#ffffff"
     stroke="#000000"
     d="M114.03057651344373,243.49999999999994L182.0152882567219,265.58957188810757L139.99842568401186,323.4208218881076L72.01371394073371,301.33124999999995L114.03057651344373,243.49999999999994"
     stroke-width="0"
     opacity="0"
     transform="matrix(1,0,0,1,0,0)"
     id="path23" />
  <path
     style="stroke-linejoin:round;opacity:1;fill:#008080"
     fill="#ffffff"
     stroke="#808080"
     d="M72.01371394073372,301.33124999999995L139.9984256840119,323.4208218881076L139.9984256840119,394.9041781118923L72.01371394073372,372.81460622378466L72.01371394073372,301.33124999999995"
     stroke-width="1"
     stroke-linejoin="round"
     opacity="1"
     id="path24" />
  <path
     style="stroke-linejoin:round;opacity:1;fill:#008080"
     fill="#ffffff"
     stroke="#808080"
     d="M72.01371394073374,372.81460622378466L139.99842568401192,394.9041781118923L182.01528825672193,452.7354281118923L114.03057651344376,430.6458562237847L72.01371394073374,372.81460622378466"
     stroke-width="1"
     stroke-linejoin="round"
     opacity="1"
     id="path25" />
  <path
     style="stroke-linejoin:round;opacity:1;fill:#800000"
     fill="#d3d3d3"
     stroke="#808080"
     d="M317.98471174327824,34.26457188810757L360.00157431598825,92.09582188810757L292.01686257271007,114.18539377621522L250.00000000000006,56.354143776215224L317.98471174327824,34.26457188810757"
     stroke-width="1"
     stroke-linejoin="round"
     opacity="1"
     id="path26" />
  <path
     style="opacity: 0;"
     fill="#ffffff"
     stroke="#000000"
     d="M317.98471174327824,34.26457188810757L360.00157431598825,92.09582188810757L292.01686257271007,114.18539377621522L250.00000000000006,56.354143776215224L317.98471174327824,34.26457188810757"
     stroke-width="0"
     opacity="0"
     transform="matrix(0.7,0,0,0.7,91.5002,22.2675)"
     id="path27" />
  <path
     style="stroke-linejoin:round;opacity:1;fill:#800000"
     fill="#ffffff"
     stroke="#808080"
     d="M250.00000000000006,56.35414377621523L292.01686257271007,114.18539377621522L250.00000000000006,172.01664377621523L207.98313742729005,114.18539377621522L250.00000000000006,56.35414377621523"
     stroke-width="1"
     stroke-linejoin="round"
     opacity="1"
     id="path28" />
  <path
     style="opacity: 0;"
     fill="#ffffff"
     stroke="#000000"
     d="M250.00000000000006,56.35414377621523L292.01686257271007,114.18539377621522L250.00000000000006,172.01664377621523L207.98313742729005,114.18539377621522L250.00000000000006,56.35414377621523"
     stroke-width="0"
     opacity="0"
     transform="matrix(1,0,0,1,0,0)"
     id="path29" />
  <path
     style="stroke-linejoin:round;opacity:1;fill:#800000"
     fill="#ffffff"
     stroke="#808080"
     d="M207.98313742729005,114.18539377621522L250.00000000000006,172.01664377621523L250.00000000000006,243.49999999999994L207.98313742729005,185.66874999999993L207.98313742729005,114.18539377621522"
     stroke-width="1"
     stroke-linejoin="round"
     opacity="1"
     id="path30" />
  <path
     style="opacity: 0;"
     fill="#ffffff"
     stroke="#000000"
     d="M207.98313742729005,114.18539377621522L250.00000000000006,172.01664377621523L250.00000000000006,243.49999999999994L207.98313742729005,185.66874999999993L207.98313742729005,114.18539377621522"
     stroke-width="0"
     opacity="0"
     transform="matrix(1,0,0,1,0,0)"
     id="path31" />
  <path
     style="stroke-linejoin:round;opacity:1;fill:#800080"
     fill="#ffffff"
     stroke="#808080"
     d="M139.99842568401186,163.5791781118923L182.01528825672187,221.41042811189232L114.03057651344372,243.49999999999994L72.0137139407337,185.66874999999996L139.99842568401186,163.5791781118923"
     stroke-width="1"
     stroke-linejoin="round"
     opacity="1"
     id="path32" />
  <path
     style="opacity: 0;"
     fill="#ffffff"
     stroke="#000000"
     d="M139.99842568401186,163.5791781118923L182.01528825672187,221.41042811189232L114.03057651344372,243.49999999999994L72.0137139407337,185.66874999999996L139.99842568401186,163.5791781118923"
     stroke-width="0"
     opacity="0"
     transform="matrix(1,0,0,1,0,0)"
     id="path33" />
  <path
     style="stroke-linejoin:round;opacity:1;fill:#800080"
     fill="#ffffff"
     stroke="#808080"
     d="M72.0137139407337,185.66874999999996L114.03057651344372,243.49999999999994L72.01371394073371,301.33124999999995L29.996851368023677,243.49999999999994L72.0137139407337,185.66874999999996"
     stroke-width="1"
     stroke-linejoin="round"
     opacity="1"
     id="path34" />
  <path
     style="stroke-linejoin:round;opacity:1;fill:#008080"
     fill="#ffffff"
     stroke="#808080"
     d="M29.996851368023684,243.49999999999994L72.01371394073371,301.33124999999995L72.01371394073371,372.81460622378466L29.996851368023687,314.98335622378465L29.996851368023684,243.49999999999994"
     stroke-width="1"
     stroke-linejoin="round"
     opacity="1"
     id="path35" />
  <path
     style="opacity: 0;"
     fill="#ffffff"
     stroke="#000000"
     d="M29.996851368023684,243.49999999999994L72.01371394073371,301.33124999999995L72.01371394073371,372.81460622378466L29.996851368023687,314.98335622378465L29.996851368023684,243.49999999999994"
     stroke-width="0"
     opacity="0"
     transform="matrix(1,0,0,1,0,0)"
     id="path36" />
  <path
     style="stroke-linejoin:round;opacity:1;fill:#808000"
     fill="#ffffff"
     stroke="#808080"
     d="M427.98628605926643,114.1853937762152L470.00314863197644,172.01664377621518L470.00314863197644,243.4999999999999L427.98628605926643,185.66874999999987L427.98628605926643,114.1853937762152"
     stroke-width="1"
     stroke-linejoin="round"
     opacity="1"
     id="path37" />
  <path
     style="opacity: 0;"
     fill="#ffffff"
     stroke="#000000"
     d="M427.98628605926643,114.1853937762152L470.00314863197644,172.01664377621518L470.00314863197644,243.4999999999999L427.98628605926643,185.66874999999987L427.98628605926643,114.1853937762152"
     stroke-width="0"
     opacity="0"
     transform="matrix(1,0,0,1,0,0)"
     id="path38" />
  <path
     style="stroke-linejoin:round;opacity:1;fill:#808000"
     fill="#ffffff"
     stroke="#808080"
     d="M427.98628605926643,185.66874999999987L470.00314863197644,243.4999999999999L427.98628605926643,301.3312499999999L385.9694234865564,243.4999999999999L427.98628605926643,185.66874999999987"
     stroke-width="1"
     stroke-linejoin="round"
     opacity="1"
     id="path39" />
  <path
     style="stroke-linejoin:round;opacity:1;fill:#808000"
     fill="#d3d3d3"
     stroke="#808080"
     d="M385.9694234865564,243.4999999999999L427.98628605926643,301.3312499999999L360.00157431598825,323.4208218881076L317.98471174327824,265.58957188810757L385.9694234865564,243.4999999999999"
     stroke-width="1"
     stroke-linejoin="round"
     opacity="1"
     id="path40" />
  <path
     style="opacity: 0;"
     fill="#ffffff"
     stroke="#000000"
     d="M385.9694234865564,243.4999999999999L427.98628605926643,301.3312499999999L360.00157431598825,323.4208218881076L317.98471174327824,265.58957188810757L385.9694234865564,243.4999999999999"
     stroke-width="0"
     opacity="0"
     transform="matrix(0.7,0,0,0.7,111.8956,85.0381)"
     id="path41" />
  <path
     style="stroke-linejoin:round;opacity:1;fill:#008000"
     fill="#ffffff"
     stroke="#808080"
     d="M250.00000000000006,243.49999999999994L292.01686257271007,301.33124999999995L292.01686257271007,372.81460622378466L250.00000000000006,314.98335622378465L250.00000000000006,243.49999999999994"
     stroke-width="1"
     stroke-linejoin="round"
     opacity="1"
     id="path42" />
  <path
     style="opacity: 0;"
     fill="#ffffff"
     stroke="#000000"
     d="M250.00000000000006,243.49999999999994L292.01686257271007,301.33124999999995L292.01686257271007,372.81460622378466L250.00000000000006,314.98335622378465L250.00000000000006,243.49999999999994"
     stroke-width="0"
     opacity="0"
     transform="matrix(1,0,0,1,0,0)"
     id="path43" />
  <path
     style="stroke-linejoin:round;opacity:1;fill:#008000"
     fill="#ffffff"
     stroke="#808080"
     d="M250.00000000000006,314.98335622378465L292.01686257271007,372.81460622378466L250.00000000000006,430.6458562237847L207.98313742729005,372.81460622378466L250.00000000000006,314.98335622378465"
     stroke-width="1"
     stroke-linejoin="round"
     opacity="1"
     id="path44" />
  <path
     style="stroke-linejoin:round;opacity:1;fill:#008080"
     fill="#ffffff"
     stroke="#808080"
     d="M207.98313742729005,372.81460622378466L250.00000000000006,430.6458562237847L182.01528825672187,452.7354281118923L139.99842568401186,394.9041781118923L207.98313742729005,372.81460622378466"
     stroke-width="1"
     stroke-linejoin="round"
     opacity="1"
     id="path45" />
  <path
     style="stroke-linejoin:round;opacity:1;fill:#800000"
     fill="#d3d3d3"
     stroke="#808080"
     d="M360.00157431598825,92.09582188810757L360.00157431598825,163.57917811189225L292.01686257271007,185.66874999999993L292.01686257271007,114.18539377621522L360.00157431598825,92.09582188810757"
     stroke-width="1"
     stroke-linejoin="round"
     opacity="1"
     id="path46" />
  <path
     style="stroke-linejoin:round;opacity:1;fill:#800000"
     fill="#ffffff"
     stroke="#808080"
     d="M292.01686257271007,114.18539377621522L292.01686257271007,185.66874999999993L250.00000000000006,243.49999999999994L250.00000000000006,172.01664377621523L292.01686257271007,114.18539377621522"
     stroke-width="1"
     stroke-linejoin="round"
     opacity="1"
     id="path47" />
  <path
     style="opacity: 0;"
     fill="#ffffff"
     stroke="#000000"
     d="M292.01686257271007,114.18539377621522L292.01686257271007,185.66874999999993L250.00000000000006,243.49999999999994L250.00000000000006,172.01664377621523L292.01686257271007,114.18539377621522"
     stroke-width="0"
     opacity="0"
     transform="matrix(1,0,0,1,0,0)"
     id="path48" />
  <path
     style="stroke-linejoin:round;opacity:1;fill:#800080"
     fill="#ffffff"
     stroke="#808080"
     d="M139.99842568401186,92.09582188810762L139.99842568401186,163.5791781118923L72.0137139407337,185.66875L72.0137139407337,114.18539377621528L139.99842568401186,92.09582188810762"
     stroke-width="1"
     stroke-linejoin="round"
     opacity="1"
     id="path49" />
  <path
     style="opacity: 0;"
     fill="#ffffff"
     stroke="#000000"
     d="M139.99842568401186,92.09582188810762L139.99842568401186,163.5791781118923L72.0137139407337,185.66875L72.0137139407337,114.18539377621528L139.99842568401186,92.09582188810762"
     stroke-width="0"
     opacity="0"
     transform="matrix(1,0,0,1,0,0)"
     id="path50" />
  <path
     style="stroke-linejoin:round;opacity:1;fill:#800080"
     fill="#ffffff"
     stroke="#808080"
     d="M72.0137139407337,114.18539377621528L72.0137139407337,185.66875L29.99685136802368,243.5L29.996851368023677,172.0166437762153L72.0137139407337,114.18539377621528"
     stroke-width="1"
     stroke-linejoin="round"
     opacity="1"
     id="path51" />
  <path
     style="opacity: 0;"
     fill="#ffffff"
     stroke="#000000"
     d="M72.0137139407337,114.18539377621528L72.0137139407337,185.66875L29.99685136802368,243.5L29.996851368023677,172.0166437762153L72.0137139407337,114.18539377621528"
     stroke-width="0"
     opacity="0"
     transform="matrix(1,0,0,1,0,0)"
     id="path52" />
  <path
     style="stroke-linejoin:round;opacity:1;fill:#808000"
     fill="#ffffff"
     stroke="#808080"
     d="M470.00314863197644,243.4999999999999L470.00314863197644,314.9833562237846L427.98628605926643,372.8146062237846L427.98628605926643,301.3312499999999L470.00314863197644,243.4999999999999"
     stroke-width="1"
     stroke-linejoin="round"
     opacity="1"
     id="path53" />
  <path
     style="opacity: 0;"
     fill="#ffffff"
     stroke="#000000"
     d="M470.00314863197644,243.4999999999999L470.00314863197644,314.9833562237846L427.98628605926643,372.8146062237846L427.98628605926643,301.3312499999999L470.00314863197644,243.4999999999999"
     stroke-width="0"
     opacity="0"
     transform="matrix(1,0,0,1,0,0)"
     id="path54" />
  <path
     style="stroke-linejoin:round;opacity:1;fill:#008000"
     fill="#d3d3d3"
     stroke="#808080"
     d="M427.98628605926643,301.3312499999999L427.98628605926643,372.8146062237846L360.00157431598825,394.90417811189224L360.00157431598825,323.4208218881075L427.98628605926643,301.3312499999999"
     stroke-width="1"
     stroke-linejoin="round"
     opacity="1"
     id="path55" />
  <path
     style="opacity: 0;"
     fill="#ffffff"
     stroke="#000000"
     d="M427.98628605926643,301.3312499999999L427.98628605926643,372.8146062237846L360.00157431598825,394.90417811189224L360.00157431598825,323.4208218881075L427.98628605926643,301.3312499999999"
     stroke-width="0"
     opacity="0"
     transform="matrix(0.7,0,0,0.7,118.1982,104.4353)"
     id="path56" />
  <path
     style="stroke-linejoin:round;opacity:1;fill:#008080"
     fill="#ffffff"
     stroke="#808080"
     d="M250.00000000000003,243.49999999999997L250.00000000000003,314.98335622378465L207.98313742729002,372.81460622378466L207.98313742729002,301.33124999999995L250.00000000000003,243.49999999999997"
     stroke-width="1"
     stroke-linejoin="round"
     opacity="1"
     id="path57" />
  <path
     style="opacity: 0;"
     fill="#ffffff"
     stroke="#000000"
     d="M250.00000000000003,243.49999999999997L250.00000000000003,314.98335622378465L207.98313742729002,372.81460622378466L207.98313742729002,301.33124999999995L250.00000000000003,243.49999999999997"
     stroke-width="0"
     opacity="0"
     transform="matrix(1,0,0,1,0,0)"
     id="path58" />
  <path
     style="stroke-linejoin:round;opacity:1;fill:#008080"
     fill="#ffffff"
     stroke="#808080"
     d="M207.98313742729002,301.33124999999995L207.98313742729002,372.81460622378466L139.99842568401186,394.90417811189235L139.99842568401186,323.42082188810764L207.98313742729002,301.33124999999995"
     stroke-width="1"
     stroke-linejoin="round"
     opacity="1"
     id="path59" />
  <path
     style="opacity: 0;"
     fill="#ffffff"
     stroke="#000000"
     d="M207.98313742729002,301.33124999999995L207.98313742729002,372.81460622378466L139.99842568401186,394.90417811189235L139.99842568401186,323.42082188810764L207.98313742729002,301.33124999999995"
     stroke-width="0"
     opacity="0"
     transform="matrix(1,0,0,1,0,0)"
     id="path60" />
  <path
     style="stroke-linejoin:round;opacity:1;fill:#808000"
     fill="#d3d3d3"
     stroke="#808080"
     d="M360.00157431598825,163.57917811189228L317.98471174327824,221.41042811189226L250.00000000000006,243.49999999999994L292.01686257271007,185.66874999999993L360.00157431598825,163.57917811189228"
     stroke-width="1"
     stroke-linejoin="round"
     opacity="1"
     id="path61" />
  <path
     style="stroke-linejoin:round;opacity:1;fill:#800080"
     fill="#ffffff"
     stroke="#808080"
     d="M182.01528825672187,34.26457188810761L139.99842568401186,92.09582188810761L72.01371394073368,114.18539377621526L114.0305765134437,56.35414377621527L182.01528825672187,34.26457188810761"
     stroke-width="1"
     stroke-linejoin="round"
     opacity="1"
     id="path62" />
  <path
     style="stroke-linejoin:round;opacity:1;fill:#008000"
     fill="#d3d3d3"
     stroke="#808080"
     d="M427.98628605926643,372.8146062237846L385.9694234865564,430.6458562237846L317.98471174327824,452.7354281118923L360.00157431598825,394.9041781118923L427.98628605926643,372.8146062237846"
     stroke-width="1"
     stroke-linejoin="round"
     opacity="1"
     id="path63" />
  <path
     style="opacity: 0;"
     fill="#ffffff"
     stroke="#000000"
     d="M427.98628605926643,372.8146062237846L385.9694234865564,430.6458562237846L317.98471174327824,452.7354281118923L360.00157431598825,394.9041781118923L427.98628605926643,372.8146062237846"
     stroke-width="0"
     opacity="0"
     transform="matrix(0.7,0,0,0.7,111.8956,123.8325)"
     id="path64" />
  <path
     style="stroke-linejoin:round;opacity:1;fill:#008080"
     fill="#ffffff"
     stroke="#808080"
     d="M250.00000000000003,243.49999999999994L207.98313742729002,301.33124999999995L139.99842568401186,323.4208218881076L182.01528825672187,265.58957188810757L250.00000000000003,243.49999999999994"
     stroke-width="1"
     stroke-linejoin="round"
     opacity="1"
     id="path65" />
  <path
     style="opacity: 0;"
     fill="#ffffff"
     stroke="#000000"
     d="M250.00000000000003,243.49999999999994L207.98313742729002,301.33124999999995L139.99842568401186,323.4208218881076L182.01528825672187,265.58957188810757L250.00000000000003,243.49999999999994"
     stroke-width="0"
     opacity="0"
     transform="matrix(1,0,0,1,0,0)"
     id="path66" />
  <path
     style="stroke-linejoin: round; opacity: 1;"
     fill="none"
     stroke="#000000"
     d="M317.98471174327824,265.58957188810757L250.00000000000006,243.49999999999991L250.00000000000006,243.49999999999994L292.01686257271007,185.66874999999993L360.00157431598825,163.57917811189228L360.00157431598825,163.57917811189225L360.00157431598825,163.57917811189225L360.00157431598825,92.09582188810757L427.98628605926643,114.18539377621521L427.98628605926643,114.1853937762152L470.00314863197644,172.01664377621518L470.00314863197644,243.4999999999999L470.00314863197644,243.4999999999999L470.00314863197644,243.4999999999999L470.00314863197644,314.9833562237846L427.98628605926643,372.8146062237846L427.98628605926643,301.3312499999999L427.98628605926643,301.3312499999999L427.98628605926643,301.3312499999999L360.00157431598825,323.4208218881076L317.98471174327824,265.58957188810757L317.98471174327824,265.58957188810757"
     stroke-width="3"
     stroke-linejoin="round"
     opacity="1"
     id="path67" />
  <path
     style="stroke-linejoin: round; opacity: 1;"
     fill="none"
     stroke="#000000"
     d="M292.01686257271007,185.66874999999993L250.00000000000006,243.49999999999994L250.00000000000006,243.49999999999994L207.98313742729005,185.66874999999993L207.98313742729005,114.18539377621522L207.98313742729005,114.18539377621522L207.98313742729005,114.18539377621524L139.99842568401186,92.0958218881076L182.01528825672187,34.2645718881076L182.01528825672187,34.2645718881076L250.00000000000006,12.174999999999937L317.98471174327824,34.26457188810758L317.98471174327824,34.26457188810757L317.98471174327824,34.26457188810757L385.9694234865564,56.35414377621521L427.98628605926643,114.18539377621521L360.00157431598825,92.09582188810757L360.00157431598825,92.09582188810757L360.00157431598825,92.09582188810757L360.00157431598825,163.57917811189225L292.01686257271007,185.66874999999993L292.01686257271007,185.66874999999993"
     stroke-width="3"
     stroke-linejoin="round"
     opacity="1"
     id="path68" />
  <path
     style="stroke-linejoin: round; opacity: 1;"
     fill="none"
     stroke="#000000"
     d="M207.98313742729005,185.66874999999993L250.00000000000006,243.49999999999994L250.00000000000006,243.49999999999994L182.0152882567219,265.58957188810757L114.03057651344373,243.49999999999994L114.03057651344372,243.49999999999994L114.03057651344372,243.49999999999994L72.01371394073371,301.33124999999995L29.996851368023677,243.49999999999994L29.99685136802368,243.5L29.996851368023677,172.0166437762153L72.0137139407337,114.18539377621528L72.0137139407337,114.18539377621528L72.01371394073368,114.18539377621526L114.0305765134437,56.35414377621527L182.01528825672187,34.26457188810761L139.99842568401186,92.09582188810761L139.99842568401186,92.09582188810762L139.99842568401186,92.0958218881076L207.98313742729005,114.18539377621524L207.98313742729005,185.66874999999993L207.98313742729005,185.66874999999993"
     stroke-width="3"
     stroke-linejoin="round"
     opacity="1"
     id="path69" />
  <path
     style="stroke-linejoin: round; opacity: 1;"
     fill="none"
     stroke="#000000"
     d="M182.01528825672187,265.58957188810757L250.00000000000003,243.49999999999994L250.00000000000003,243.49999999999997L250.00000000000003,314.98335622378465L207.98313742729002,372.81460622378466L207.98313742729002,372.81460622378466L207.98313742729005,372.81460622378466L250.00000000000006,430.6458562237847L182.01528825672187,452.7354281118923L182.01528825672193,452.7354281118923L114.03057651344376,430.6458562237847L72.01371394073374,372.81460622378466L72.01371394073372,372.81460622378466L72.01371394073371,372.81460622378466L29.996851368023687,314.98335622378465L29.996851368023684,243.49999999999994L72.01371394073371,301.33124999999995L72.01371394073372,301.33124999999995L72.01371394073371,301.33124999999995L114.03057651344373,243.49999999999994L182.0152882567219,265.58957188810757L182.01528825672187,265.58957188810757"
     stroke-width="3"
     stroke-linejoin="round"
     opacity="1"
     id="path70" />
  <path
     style="stroke-linejoin: round; opacity: 1;"
     fill="none"
     stroke="#000000"
     d="M250.00000000000006,314.98335622378465L250.00000000000006,243.49999999999994L250.00000000000006,243.49999999999991L317.98471174327824,265.58957188810757L360.00157431598825,323.4208218881075L360.00157431598825,323.4208218881075L360.00157431598825,323.4208218881075L427.98628605926643,301.3312499999999L427.98628605926643,372.8146062237846L427.98628605926643,372.8146062237846L385.9694234865564,430.6458562237846L317.98471174327824,452.7354281118923L317.98471174327824,452.73542811189225L317.98471174327824,452.73542811189225L250.00000000000006,474.8249999999999L182.01528825672187,452.73542811189225L250.00000000000006,430.6458562237846L250.00000000000006,430.6458562237846L250.00000000000006,430.6458562237847L207.98313742729005,372.81460622378466L250.00000000000006,314.98335622378465L250.00000000000006,314.98335622378465"
     stroke-width="3"
     stroke-linejoin="round"
     opacity="1"
     id="path71" />
  <path
     style="opacity: 0;"
     fill="#ffffff"
     stroke="#000000"
     d="M317.98471174327824,34.26457188810757L385.9694234865564,56.35414377621521L427.98628605926643,114.18539377621521L360.00157431598825,92.09582188810757L317.98471174327824,34.26457188810757"
     stroke-width="0"
     opacity="0"
     transform="matrix(0.7,0,0,0.7,111.8956,22.2675)"
     id="path72" />
  <path
     style="opacity: 0;"
     fill="#ffffff"
     stroke="#000000"
     d="M292.01686257271007,301.3312499999999L360.00157431598825,323.4208218881075L360.00157431598825,394.90417811189224L292.01686257271007,372.8146062237846L292.01686257271007,301.3312499999999"
     stroke-width="0"
     opacity="0"
     transform="matrix(0.7,0,0,0.7,97.8028,104.4353)"
     id="path73" />
  <path
     style="opacity: 0;"
     fill="#ffffff"
     stroke="#000000"
     d="M292.01686257271007,372.8146062237846L360.00157431598825,394.90417811189224L317.98471174327824,452.73542811189225L250.00000000000006,430.6458562237846L292.01686257271007,372.8146062237846"
     stroke-width="0"
     opacity="0"
     transform="matrix(0.7,0,0,0.7,91.5002,123.8325)"
     id="path74" />
  <path
     style="opacity: 0;"
     fill="#ffffff"
     stroke="#000000"
     d="M139.99842568401186,92.0958218881076L207.98313742729005,114.18539377621524L207.98313742729005,185.66874999999993L139.99842568401186,163.5791781118923L139.99842568401186,92.0958218881076"
     stroke-width="0"
     opacity="0"
     transform="matrix(1,0,0,1,0,0)"
     id="path75" />
  <path
     style="opacity: 0;"
     fill="#ffffff"
     stroke="#000000"
     d="M139.99842568401186,163.5791781118923L207.98313742729005,185.66874999999993L250.00000000000006,243.49999999999994L182.01528825672187,221.41042811189232L139.99842568401186,163.5791781118923"
     stroke-width="0"
     opacity="0"
     transform="matrix(1,0,0,1,0,0)"
     id="path76" />
  <path
     style="opacity: 0;"
     fill="#ffffff"
     stroke="#000000"
     d="M72.01371394073372,301.33124999999995L139.9984256840119,323.4208218881076L139.9984256840119,394.9041781118923L72.01371394073372,372.81460622378466L72.01371394073372,301.33124999999995"
     stroke-width="0"
     opacity="0"
     transform="matrix(1,0,0,1,0,0)"
     id="path77" />
  <path
     style="opacity: 0;"
     fill="#ffffff"
     stroke="#000000"
     d="M72.01371394073374,372.81460622378466L139.99842568401192,394.9041781118923L182.01528825672193,452.7354281118923L114.03057651344376,430.6458562237847L72.01371394073374,372.81460622378466"
     stroke-width="0"
     opacity="0"
     transform="matrix(1,0,0,1,0,0)"
     id="path78" />
  <path
     style="opacity: 0;"
     fill="#ffffff"
     stroke="#000000"
     d="M72.0137139407337,185.66874999999996L114.03057651344372,243.49999999999994L72.01371394073371,301.33124999999995L29.996851368023677,243.49999999999994L72.0137139407337,185.66874999999996"
     stroke-width="0"
     opacity="0"
     transform="matrix(1,0,0,1,0,0)"
     id="path79" />
  <path
     style="opacity: 0;"
     fill="#ffffff"
     stroke="#000000"
     d="M427.98628605926643,185.66874999999987L470.00314863197644,243.4999999999999L427.98628605926643,301.3312499999999L385.9694234865564,243.4999999999999L427.98628605926643,185.66874999999987"
     stroke-width="0"
     opacity="0"
     transform="matrix(1,0,0,1,0,0)"
     id="path80" />
  <path
     style="opacity: 0;"
     fill="#ffffff"
     stroke="#000000"
     d="M250.00000000000006,314.98335622378465L292.01686257271007,372.81460622378466L250.00000000000006,430.6458562237847L207.98313742729005,372.81460622378466L250.00000000000006,314.98335622378465"
     stroke-width="0"
     opacity="0"
     transform="matrix(1,0,0,1,0,0)"
     id="path81" />
  <path
     style="opacity: 0;"
     fill="#ffffff"
     stroke="#000000"
     d="M207.98313742729005,372.81460622378466L250.00000000000006,430.6458562237847L182.01528825672187,452.7354281118923L139.99842568401186,394.9041781118923L207.98313742729005,372.81460622378466"
     stroke-width="0"
     opacity="0"
     transform="matrix(1,0,0,1,0,0)"
     id="path82" />
  <path
     style="opacity: 0;"
     fill="#ffffff"
     stroke="#000000"
     d="M360.00157431598825,92.09582188810757L360.00157431598825,163.57917811189225L292.01686257271007,185.66874999999993L292.01686257271007,114.18539377621522L360.00157431598825,92.09582188810757"
     stroke-width="0"
     opacity="0"
     transform="matrix(0.7,0,0,0.7,97.8028,41.6647)"
     id="path83" />
  <path
     style="opacity: 0;"
     fill="#ffffff"
     stroke="#000000"
     d="M360.00157431598825,163.57917811189228L317.98471174327824,221.41042811189226L250.00000000000006,243.49999999999994L292.01686257271007,185.66874999999993L360.00157431598825,163.57917811189228"
     stroke-width="0"
     opacity="0"
     transform="matrix(0.7,0,0,0.7,91.5002,61.0619)"
     id="path84" />
  <path
     style="opacity: 0;"
     fill="#ffffff"
     stroke="#000000"
     d="M182.01528825672187,34.26457188810761L139.99842568401186,92.09582188810761L72.01371394073368,114.18539377621526L114.0305765134437,56.35414377621527L182.01528825672187,34.26457188810761"
     stroke-width="0"
     opacity="0"
     transform="matrix(1,0,0,1,0,0)"
     id="path85" />
</svg>
