<?xml version="1.0" encoding="UTF-8" standalone="no"?>
<svg height="492" version="1.1" width="500" style="overflow: hidden; position: relative;"
    xmlns="http://www.w3.org/2000/svg" xmlns:svg="http://www.w3.org/2000/svg">
    <desc>Created with Raphaël 2.3.0</desc>
    <defs></defs>
    <path fill="#E7BFDE" stroke="#808080" d="M250 12.3L312.6 12.3L366.8 43.6L304.2 43.6L250 12.3"
        id="cell59"></path>
    <path fill="#9F97F9" stroke="#808080"
        d="M304.2 43.6L366.8 43.6L398.2 97.8L335.5 97.8L304.2 43.6" id="cell58"></path>
    <path fill="#A787DC" stroke="#808080"
        d="M335.5 97.8L398.2 97.8L398.2 160.5L335.5 160.5L335.5 97.8" id="cell57"></path>
    <path fill="#95F975" stroke="#808080"
        d="M335.5 160.5L398.2 160.5L366.8 214.7L304.2 214.7L335.5 160.5" id="cell56"></path>
    <path fill="#8DADEF" stroke="#808080" d="M304.2 214.7L366.8 214.7L312.6 246L250 246L304.2 214.7"
        id="cell55"></path>
    <path fill="#659AF8" stroke="#808080" d="M250 246L312.6 246L366.9 277.3L304.2 277.3L250 246"
        id="cell54"></path>
    <path fill="#B75CAB" stroke="#808080"
        d="M304.2 277.3L366.9 277.3L398.2 331.5L335.5 331.5L304.2 277.3" id="cell53"></path>
    <path fill="#A7CEF9" stroke="#808080"
        d="M335.5 331.5L398.2 331.5L398.2 394.2L335.5 394.2L335.5 331.5" id="cell52"></path>
    <path fill="#A7D7CD" stroke="#808080"
        d="M335.5 394.2L398.2 394.2L366.9 448.4L304.2 448.4L335.5 394.2" id="cell51"></path>
    <path fill="#F5FBDD" stroke="#808080"
        d="M304.2 448.4L366.9 448.4L312.6 479.7L250 479.7L304.2 448.4" id="cell50"></path>
    <path fill="#77DBEB" stroke="#808080" d="M187.4 12.3L250 12.3L195.8 43.6L133.1 43.6L187.4 12.3"
        id="cell49"></path>
    <path fill="#5EDAF5" stroke="#808080"
        d="M133.2 43.6L195.8 43.6L164.5 97.8L101.8 97.8L133.2 43.6" id="cell48"></path>
    <path fill="#BA766D" stroke="#808080"
        d="M101.8 97.8L164.5 97.8L164.5 160.5L101.8 160.5L101.8 97.8" id="cell47"></path>
    <path fill="#EB8587" stroke="#808080"
        d="M101.8 160.5L164.5 160.5L195.8 214.7L133.2 214.7L101.8 160.5" id="cell46"></path>
    <path fill="#D8FE8F" stroke="#808080" d="M133.2 214.7L195.8 214.7L250 246L187.4 246L133.2 214.7"
        id="cell45"></path>
    <path fill="#DFC7BC" stroke="#808080" d="M187.4 246L250 246L195.8 277.3L133.2 277.3L187.4 246"
        id="cell44"></path>
    <path fill="#9E5A8D" stroke="#808080"
        d="M133.2 277.3L195.8 277.3L164.5 331.5L101.8 331.5L133.2 277.3" id="cell43"></path>
    <path fill="#B9B5CC" stroke="#808080"
        d="M101.8 331.5L164.5 331.5L164.5 394.2L101.8 394.2L101.8 331.5" id="cell42"></path>
    <path fill="#57E9F7" stroke="#808080"
        d="M101.8 394.2L164.5 394.2L195.8 448.4L133.2 448.4L101.8 394.2" id="cell41"></path>
    <path fill="#F7BF79" stroke="#808080"
        d="M133.2 448.4L195.8 448.4L250 479.7L187.4 479.7L133.2 448.4" id="cell40"></path>
    <path fill="#7F58E7" stroke="#808080" d="M250 12.3L304.2 43.6L250 74.9L195.8 43.6L250 12.3"
        id="cell39"></path>
    <path fill="#7EEB6A" stroke="#808080" d="M195.8 43.6L250 74.9L218.7 129.2L164.5 97.8L195.8 43.6"
        id="cell38"></path>
    <path fill="#8F7BBB" stroke="#808080"
        d="M164.5 97.8L218.7 129.2L218.7 191.8L164.5 160.5L164.5 97.8" id="cell37"></path>
    <path fill="#569C86" stroke="#808080"
        d="M164.5 160.5L218.7 191.8L250 246L195.8 214.7L164.5 160.5" id="cell36"></path>
    <path fill="#97EACF" stroke="#808080"
        d="M133.2 214.7L187.4 246L133.2 277.3L78.9 246L133.2 214.7" id="cell35"></path>
    <path fill="#DCC7CD" stroke="#808080" d="M78.9 246L133.2 277.3L101.8 331.5L47.6 300.2L78.9 246"
        id="cell34"></path>
    <path fill="#5DE7D9" stroke="#808080"
        d="M47.6 300.2L101.8 331.5L101.8 394.2L47.6 362.9L47.6 300.2" id="cell33"></path>
    <path fill="#DACF5C" stroke="#808080"
        d="M47.6 362.9L101.8 394.2L133.2 448.4L78.9 417.1L47.6 362.9" id="cell32"></path>
    <path fill="#AC79FB" stroke="#808080"
        d="M366.8 43.6L421.1 74.9L452.4 129.2L398.2 97.8L366.8 43.6" id="cell31"></path>
    <path fill="#A856AF" stroke="#808080"
        d="M398.2 97.8L452.4 129.2L452.4 191.8L398.2 160.5L398.2 97.8" id="cell30"></path>
    <path fill="#75F8D6" stroke="#808080"
        d="M398.2 160.5L452.4 191.8L421.1 246L366.8 214.7L398.2 160.5" id="cell29"></path>
    <path fill="#5EC8D7" stroke="#808080"
        d="M366.8 214.7L421.1 246L366.8 277.3L312.6 246L366.8 214.7" id="cell28"></path>
    <path fill="#7D9AAB" stroke="#808080" d="M250 246L304.2 277.3L335.5 331.5L281.3 300.2L250 246"
        id="cell27"></path>
    <path fill="#C66ADA" stroke="#808080"
        d="M281.3 300.2L335.5 331.5L335.5 394.2L281.3 362.9L281.3 300.2" id="cell26"></path>
    <path fill="#AB878A" stroke="#808080"
        d="M281.3 362.9L335.5 394.2L304.2 448.4L250 417.1L281.3 362.9" id="cell25"></path>
    <path fill="#BD7B57" stroke="#808080" d="M250 417.1L304.2 448.4L250 479.7L195.8 448.4L250 417.1"
        id="cell24"></path>
    <path fill="#68AFC6" stroke="#808080" d="M304.2 43.6L335.5 97.8L281.3 129.2L250 74.9L304.2 43.6"
        id="cell23"></path>
    <path fill="#65F88D" stroke="#808080" d="M250 74.9L281.3 129.2L250 183.4L218.7 129.2L250 74.9"
        id="cell22"></path>
    <path fill="#FAFFD8" stroke="#808080" d="M218.7 129.2L250 183.4L250 246L218.7 191.8L218.7 129.2"
        id="cell21"></path>
    <path fill="#A5C55F" stroke="#808080"
        d="M101.8 160.5L133.2 214.7L78.9 246L47.6 191.8L101.8 160.5" id="cell20"></path>
    <path fill="#99A6FD" stroke="#808080" d="M47.6 191.8L78.9 246L47.6 300.2L16.3 246L47.6 191.8"
        id="cell19"></path>
    <path fill="#9ED767" stroke="#808080" d="M16.3 246L47.6 300.2L47.6 362.9L16.3 308.6L16.3 246"
        id="cell18"></path>
    <path fill="#AEDCE6" stroke="#808080"
        d="M452.4 129.2L483.7 183.4L483.7 246L452.4 191.8L452.4 129.2" id="cell17"></path>
    <path fill="#BC98CD" stroke="#808080"
        d="M452.4 191.8L483.7 246L452.4 300.2L421.1 246L452.4 191.8" id="cell16"></path>
    <path fill="#5FFF7A" stroke="#808080"
        d="M421.1 246L452.4 300.2L398.2 331.5L366.8 277.3L421.1 246" id="cell15"></path>
    <path fill="#79B897" stroke="#808080" d="M250 246L281.3 300.2L281.3 362.9L250 308.6L250 246"
        id="cell14"></path>
    <path fill="#7B89AC" stroke="#808080" d="M250 308.6L281.3 362.9L250 417.1L218.7 362.9L250 308.6"
        id="cell13"></path>
    <path fill="#7675E7" stroke="#808080"
        d="M218.7 362.9L250 417.1L195.8 448.4L164.5 394.2L218.7 362.9" id="cell12"></path>
    <path fill="#A5A8DB" stroke="#808080"
        d="M335.5 97.8L335.5 160.5L281.3 191.8L281.3 129.2L335.5 97.8" id="cell11"></path>
    <path fill="#EAB99C" stroke="#808080" d="M281.3 129.2L281.3 191.8L250 246L250 183.4L281.3 129.2"
        id="cell10"></path>
    <path fill="#D956B9" stroke="#808080"
        d="M101.8 97.8L101.8 160.5L47.6 191.8L47.6 129.2L101.8 97.8" id="cell9"></path>
    <path fill="#887B98" stroke="#808080" d="M47.6 129.2L47.6 191.8L16.3 246L16.3 183.4L47.6 129.2"
        id="cell8"></path>
    <path fill="#B97E6F" stroke="#808080"
        d="M483.7 246L483.7 308.6L452.4 362.8L452.4 300.2L483.7 246" id="cell7"></path>
    <path fill="#BB5CE9" stroke="#808080"
        d="M452.4 300.2L452.4 362.8L398.2 394.2L398.2 331.5L452.4 300.2" id="cell6"></path>
    <path fill="#AE57C6" stroke="#808080" d="M250 246L250 308.6L218.7 362.9L218.7 300.2L250 246"
        id="cell5"></path>
    <path fill="#EC9766" stroke="#808080"
        d="M218.7 300.2L218.7 362.9L164.5 394.2L164.5 331.5L218.7 300.2" id="cell4"></path>
    <path fill="#A65A5E" stroke="#808080"
        d="M335.5 160.5L304.2 214.7L250 246L281.3 191.8L335.5 160.5" id="cell3"></path>
    <path fill="#F88ADD" stroke="#808080" d="M133.2 43.6L101.8 97.8L47.6 129.2L78.9 74.9L133.2 43.6"
        id="cell2"></path>
    <path fill="#56CDCF" stroke="#808080"
        d="M452.4 362.8L421.1 417.1L366.9 448.4L398.2 394.2L452.4 362.8" id="cell1"></path>
    <path fill="#C5B8B6" stroke="#808080" d="M250 246L218.7 300.2L164.5 331.5L195.8 277.3L250 246"
        id="cell0"></path>
    <path fill="none" stroke="#000000"
        d="M312.6 246L250 246L250 246L281.3 191.8L335.5 160.5L335.5 160.5L335.5 160.5L335.5 97.8L398.2 97.8L398.2 97.8L398.2 97.8L366.8 43.6L421.1 74.9L452.4 129.2L452.4 129.2L452.4 129.2L483.7 183.4L483.7 246L483.7 246L452.4 300.2L421.1 246L421.1 246L421.1 246L366.8 277.3L312.6 246L312.6 246"
        stroke-width="3" stroke-linecap="round" stroke-linejoin="round" id="zone5"></path>
    <path fill="none" stroke="#000000"
        d="M281.3 191.8L250 246L250 246L218.7 191.8L218.7 129.2L218.7 129.2L218.7 129.2L164.5 97.8L195.8 43.6L195.8 43.6L195.8 43.6L133.1 43.6L187.4 12.3L250 12.3L250 12.3L250 12.3L312.6 12.3L366.8 43.6L366.8 43.6L398.2 97.8L335.5 97.8L335.5 97.8L335.5 97.8L335.5 160.5L281.3 191.8L281.3 191.8"
        stroke-width="3" stroke-linecap="round" stroke-linejoin="round" id="zone4"></path>
    <path fill="none" stroke="#000000"
        d="M218.7 191.8L250 246L250 246L187.4 246L133.2 214.7L133.2 214.7L133.2 214.7L78.9 246L47.6 191.8L47.6 191.8L47.6 191.8L16.3 246L16.3 183.4L47.6 129.2L47.6 129.2L47.6 129.2L78.9 74.9L133.2 43.6L133.2 43.6L195.8 43.6L164.5 97.8L164.5 97.8L164.5 97.8L218.7 129.2L218.7 191.8L218.7 191.8"
        stroke-width="3" stroke-linecap="round" stroke-linejoin="round" id="zone3"></path>
    <path fill="none" stroke="#000000"
        d="M187.4 246L250 246L250 246L218.7 300.2L164.5 331.5L164.5 331.5L164.5 331.5L164.5 394.2L101.8 394.2L101.8 394.2L101.8 394.2L133.2 448.4L78.9 417.1L47.6 362.9L47.6 362.9L47.6 362.9L16.3 308.6L16.3 246L16.3 246L47.6 191.8L78.9 246L78.9 246L78.9 246L133.2 214.7L187.4 246L187.4 246"
        stroke-width="3" stroke-linecap="round" stroke-linejoin="round" id="zone2"></path>
    <path fill="none" stroke="#000000"
        d="M218.7 300.2L250 246L250 246L281.3 300.2L281.3 362.9L281.3 362.9L281.3 362.9L335.5 394.2L304.2 448.4L304.2 448.4L304.2 448.4L366.9 448.4L312.6 479.7L250 479.7L250 479.7L250 479.7L187.4 479.7L133.2 448.4L133.2 448.4L101.8 394.2L164.5 394.2L164.5 394.2L164.5 394.2L164.5 331.5L218.7 300.2L218.7 300.2"
        stroke-width="3" stroke-linecap="round" stroke-linejoin="round" id="zone1"></path>
    <path fill="none" stroke="#000000"
        d="M281.3 300.2L250 246L250 246L312.6 246L366.9 277.3L366.9 277.3L366.8 277.3L421.1 246L452.4 300.2L452.4 300.2L452.4 300.2L483.7 246L483.7 308.6L452.4 362.8L452.4 362.8L452.4 362.8L421.1 417.1L366.9 448.4L366.9 448.4L304.2 448.4L335.5 394.2L335.5 394.2L335.5 394.2L281.3 362.9L281.3 300.2L281.3 300.2"
        stroke-width="3" stroke-linecap="round" stroke-linejoin="round" id="zone0"></path>
    <text x="207.25" y="288.75" id="label0" text-anchor="middle" dominant-baseline="middle"
        font-size="18px" font-family="Arial">0</text>
    <text x="409.65000000000003" y="405.62500000000006" id="label1" text-anchor="middle"
        dominant-baseline="middle" font-size="18px" font-family="Arial">1</text>
    <text x="90.375" y="86.375" id="label2" text-anchor="middle" dominant-baseline="middle"
        font-size="18px" font-family="Arial">2</text>
    <text x="292.75" y="203.25" id="label3" text-anchor="middle" dominant-baseline="middle"
        font-size="18px" font-family="Arial">3</text>
    <text x="191.6" y="347.2" id="label4" text-anchor="middle" dominant-baseline="middle"
        font-size="18px" font-family="Arial">4</text>
    <text x="234.35000000000002" y="304.425" id="label5" text-anchor="middle"
        dominant-baseline="middle" font-size="18px" font-family="Arial">5</text>
    <text x="425.3" y="347.175" id="label6" text-anchor="middle" dominant-baseline="middle"
        font-size="18px" font-family="Arial">6</text>
    <text x="468.04999999999995" y="304.40000000000003" id="label7" text-anchor="middle"
        dominant-baseline="middle" font-size="18px" font-family="Arial">7</text>
    <text x="31.95" y="187.6" id="label8" text-anchor="middle" dominant-baseline="middle"
        font-size="18px" font-family="Arial">8</text>
    <text x="74.7" y="144.825" id="label9" text-anchor="middle" dominant-baseline="middle"
        font-size="18px" font-family="Arial">9</text>
    <text x="265.65" y="187.6" id="label10" text-anchor="middle" dominant-baseline="middle"
        font-size="18px" font-family="Arial">10</text>
    <text x="308.4" y="144.825" id="label11" text-anchor="middle" dominant-baseline="middle"
        font-size="18px" font-family="Arial">11</text>
    <text x="207.25" y="405.65000000000003" id="label12" text-anchor="middle"
        dominant-baseline="middle" font-size="18px" font-family="Arial">12</text>
    <text x="250" y="362.875" id="label13" text-anchor="middle" dominant-baseline="middle"
        font-size="18px" font-family="Arial">13</text>
    <text x="265.65" y="304.425" id="label14" text-anchor="middle" dominant-baseline="middle"
        font-size="18px" font-family="Arial">14</text>
    <text x="409.625" y="288.75" id="label15" text-anchor="middle" dominant-baseline="middle"
        font-size="18px" font-family="Arial">15</text>
    <text x="452.4" y="246" id="label16" text-anchor="middle" dominant-baseline="middle"
        font-size="18px" font-family="Arial">16</text>
    <text x="468.04999999999995" y="187.60000000000002" id="label17" text-anchor="middle"
        dominant-baseline="middle" font-size="18px" font-family="Arial">17</text>
    <text x="31.95" y="304.425" id="label18" text-anchor="middle" dominant-baseline="middle"
        font-size="18px" font-family="Arial">18</text>
    <text x="47.6" y="246" id="label19" text-anchor="middle" dominant-baseline="middle"
        font-size="18px" font-family="Arial">19</text>
    <text x="90.375" y="203.25" id="label20" text-anchor="middle" dominant-baseline="middle"
        font-size="18px" font-family="Arial">20</text>
    <text x="234.35000000000002" y="187.60000000000002" id="label21" text-anchor="middle"
        dominant-baseline="middle" font-size="18px" font-family="Arial">21</text>
    <text x="250" y="129.175" id="label22" text-anchor="middle" dominant-baseline="middle"
        font-size="18px" font-family="Arial">22</text>
    <text x="292.75" y="86.375" id="label23" text-anchor="middle" dominant-baseline="middle"
        font-size="18px" font-family="Arial">23</text>
    <text x="250" y="448.4" id="label24" text-anchor="middle" dominant-baseline="middle"
        font-size="18px" font-family="Arial">24</text>
    <text x="292.75" y="405.65" id="label25" text-anchor="middle" dominant-baseline="middle"
        font-size="18px" font-family="Arial">25</text>
    <text x="308.4" y="347.20000000000005" id="label26" text-anchor="middle"
        dominant-baseline="middle" font-size="18px" font-family="Arial">26</text>
    <text x="292.75" y="288.75" id="label27" text-anchor="middle" dominant-baseline="middle"
        font-size="18px" font-family="Arial">27</text>
    <text x="366.82500000000005" y="246" id="label28" text-anchor="middle"
        dominant-baseline="middle" font-size="18px" font-family="Arial">28</text>
    <text x="409.62499999999994" y="203.25" id="label29" text-anchor="middle"
        dominant-baseline="middle" font-size="18px" font-family="Arial">29</text>
    <text x="425.3" y="144.825" id="label30" text-anchor="middle" dominant-baseline="middle"
        font-size="18px" font-family="Arial">30</text>
    <text x="409.62500000000006" y="86.375" id="label31" text-anchor="middle"
        dominant-baseline="middle" font-size="18px" font-family="Arial">31</text>
    <text x="90.375" y="405.65" id="label32" text-anchor="middle" dominant-baseline="middle"
        font-size="18px" font-family="Arial">32</text>
    <text x="74.7" y="347.20000000000005" id="label33" text-anchor="middle"
        dominant-baseline="middle" font-size="18px" font-family="Arial">33</text>
    <text x="90.375" y="288.75" id="label34" text-anchor="middle" dominant-baseline="middle"
        font-size="18px" font-family="Arial">34</text>
    <text x="133.175" y="246" id="label35" text-anchor="middle" dominant-baseline="middle"
        font-size="18px" font-family="Arial">35</text>
    <text x="207.25" y="203.25" id="label36" text-anchor="middle" dominant-baseline="middle"
        font-size="18px" font-family="Arial">36</text>
    <text x="191.6" y="144.825" id="label37" text-anchor="middle" dominant-baseline="middle"
        font-size="18px" font-family="Arial">37</text>
    <text x="207.25" y="86.375" id="label38" text-anchor="middle" dominant-baseline="middle"
        font-size="18px" font-family="Arial">38</text>
    <text x="250" y="43.6" id="label39" text-anchor="middle" dominant-baseline="middle"
        font-size="18px" font-family="Arial">39</text>
    <text x="191.6" y="464.05" id="label40" text-anchor="middle" dominant-baseline="middle"
        font-size="18px" font-family="Arial">40</text>
    <text x="148.825" y="421.29999999999995" id="label41" text-anchor="middle"
        dominant-baseline="middle" font-size="18px" font-family="Arial">41</text>
    <text x="133.15" y="362.85" id="label42" text-anchor="middle" dominant-baseline="middle"
        font-size="18px" font-family="Arial">42</text>
    <text x="148.825" y="304.4" id="label43" text-anchor="middle" dominant-baseline="middle"
        font-size="18px" font-family="Arial">43</text>
    <text x="191.60000000000002" y="261.65" id="label44" text-anchor="middle"
        dominant-baseline="middle" font-size="18px" font-family="Arial">44</text>
    <text x="191.6" y="230.35" id="label45" text-anchor="middle" dominant-baseline="middle"
        font-size="18px" font-family="Arial">45</text>
    <text x="148.825" y="187.60000000000002" id="label46" text-anchor="middle"
        dominant-baseline="middle" font-size="18px" font-family="Arial">46</text>
    <text x="133.15" y="129.15" id="label47" text-anchor="middle" dominant-baseline="middle"
        font-size="18px" font-family="Arial">47</text>
    <text x="148.825" y="70.7" id="label48" text-anchor="middle" dominant-baseline="middle"
        font-size="18px" font-family="Arial">48</text>
    <text x="191.57500000000002" y="27.950000000000003" id="label49" text-anchor="middle"
        dominant-baseline="middle" font-size="18px" font-family="Arial">49</text>
    <text x="308.42499999999995" y="464.05" id="label50" text-anchor="middle"
        dominant-baseline="middle" font-size="18px" font-family="Arial">50</text>
    <text x="351.2" y="421.29999999999995" id="label51" text-anchor="middle"
        dominant-baseline="middle" font-size="18px" font-family="Arial">51</text>
    <text x="366.85" y="362.85" id="label52" text-anchor="middle" dominant-baseline="middle"
        font-size="18px" font-family="Arial">52</text>
    <text x="351.2" y="304.4" id="label53" text-anchor="middle" dominant-baseline="middle"
        font-size="18px" font-family="Arial">53</text>
    <text x="308.425" y="261.65" id="label54" text-anchor="middle" dominant-baseline="middle"
        font-size="18px" font-family="Arial">54</text>
    <text x="308.4" y="230.35" id="label55" text-anchor="middle" dominant-baseline="middle"
        font-size="18px" font-family="Arial">55</text>
    <text x="351.175" y="187.60000000000002" id="label56" text-anchor="middle"
        dominant-baseline="middle" font-size="18px" font-family="Arial">56</text>
    <text x="366.85" y="129.15" id="label57" text-anchor="middle" dominant-baseline="middle"
        font-size="18px" font-family="Arial">57</text>
    <text x="351.175" y="70.7" id="label58" text-anchor="middle" dominant-baseline="middle"
        font-size="18px" font-family="Arial">58</text>
    <text x="308.40000000000003" y="27.950000000000003" id="label59" text-anchor="middle"
        dominant-baseline="middle" font-size="18px" font-family="Arial">59</text>
</svg>